<?xml version="1.0" standalone="no"?>
<!DOCTYPE svg PUBLIC "-//W3C//DTD SVG 20010904//EN"
 "http://www.w3.org/TR/2001/REC-SVG-20010904/DTD/svg10.dtd">
<svg version="1.0" xmlns="http://www.w3.org/2000/svg"
 width="500.000000pt" height="500.000000pt" viewBox="0 0 500.000000 500.000000"
 preserveAspectRatio="xMidYMid meet">
<metadata>
Created by potrace 1.11, written by Peter Selinger 2001-2013
</metadata>
<g transform="translate(0.000000,500.000000) scale(0.100000,-0.100000)"
fill="#000000" stroke="none">
<path d="M3348 3971 c-83 -27 -144 -66 -222 -140 -116 -112 -192 -233 -316
-506 -97 -215 -291 -596 -306 -602 -25 -9 -171 39 -280 92 -133 64 -250 149
-364 263 -47 46 -95 88 -108 93 -56 21 -132 -57 -117 -119 9 -39 214 -236 320
-308 50 -34 126 -79 170 -101 77 -39 223 -93 251 -93 30 0 22 -26 -37 -123
-128 -209 -417 -635 -468 -690 -4 -4 -43 10 -87 32 -112 56 -190 74 -294 68
-161 -8 -269 -76 -335 -210 -97 -198 -39 -414 134 -499 73 -36 176 -32 265 11
71 34 195 147 298 270 l44 53 126 -104 c204 -171 288 -223 453 -281 283 -98
573 -87 756 28 84 52 102 124 47 182 -31 33 -66 29 -150 -16 -223 -120 -551
-78 -819 106 -76 51 -288 226 -288 237 -1 5 36 59 82 120 158 211 323 458 463
694 l49 82 50 0 c83 0 214 19 312 46 231 62 420 174 616 363 178 173 273 341
296 526 26 213 -86 430 -266 512 -77 36 -193 41 -275 14z m210 -195 c41 -21
89 -74 115 -125 18 -38 22 -62 21 -141 0 -79 -4 -105 -26 -158 -42 -99 -114
-200 -217 -302 -147 -147 -320 -251 -505 -304 -90 -26 -216 -44 -216 -31 0 4
22 49 49 99 27 50 99 198 160 328 123 264 180 371 246 463 66 93 148 158 235
186 33 11 103 3 138 -15z m-1906 -2156 c101 -37 101 -32 -6 -151 -140 -157
-206 -195 -275 -161 -65 31 -90 127 -56 210 50 119 184 159 337 102z"/>
</g>
</svg>
