<?xml version="1.0" encoding="utf-8"?>
<!-- Generator: Adobe Illustrator 21.0.2, SVG Export Plug-In . SVG Version: 6.00 Build 0)  -->
<svg version="1.1" id="Layer_1" xmlns="http://www.w3.org/2000/svg" xmlns:xlink="http://www.w3.org/1999/xlink" x="0px" y="0px"
	 viewBox="0 0 500 500" style="enable-background:new 0 0 500 500;" xml:space="preserve">
<style type="text/css">
	.st0{fill:#231F20;}
</style>
<path class="st0" d="M12.5,249.9c26.1,38.2,51.9,76.6,78.2,114.6c10.1,14.7,21.4,29.4,38.5,36.2c15.7,6.2,34,4.5,46.3-7.7
	c23.5-23.4,9.9-63.1,2.5-90.3c-6-22.2-12.1-44.4-18.1-66.6c-1.7-6.2-14.9-41.4-1.4-43.6c6-1,11.7,9.3,13.9,13.4
	c4.5,8.4,7.2,17.9,10.7,26.8c7,18.2,14.7,36.2,26.8,51.6c19.9,25.3,56.2,42.2,87.3,27.4c32.6-15.5,38.2-55.7,36.1-87.7
	c-1.3-20.3-5.9-43,0.7-62.7c5.4-16.3,24-24.8,32-5.8c6.4,15.2,8.5,31.5,23,41.7c13.3,9.4,31.2,10,46.3,5.1
	c40.9-13.4,49.3-58.6,54.1-96c1.8-13.5-19.5-13.4-21.2,0c-3.8,29.4-10.5,72.6-46.7,77.5c-13.7,1.9-24.2-4.1-29.2-16.8
	c-5.1-12.9-7.2-27.3-18.4-36.7c-11.7-9.9-28.5-9.5-41.1-1.4c-14.3,9.2-20.3,25.8-22.2,42c-4,34.7,12,74.9-7.1,106.9
	c-19.4,32.6-60.8,15.5-78.9-9c-10.6-14.4-17.2-31.4-23.4-48c-5.6-14.9-10.5-31.1-23.1-41.7c-10.9-9.3-27-10.8-37.6,0
	c-10.1,10.2-9.6,26.3-7.1,39.4c7.5,39.3,22.6,77.3,31.3,116.4c2.8,12.8,6.3,32.7-4.1,43.1c-16.2,16.4-38.4-6-47.7-18.7
	c-28.5-39.1-54.8-80.1-82-120.1C23.2,227.9,4.8,238.5,12.5,249.9L12.5,249.9z"/>
</svg>
