<?xml version="1.0" encoding="utf-8"?>
<!-- Generator: Adobe Illustrator 21.0.2, SVG Export Plug-In . SVG Version: 6.00 Build 0)  -->
<svg version="1.1" id="Layer_1" xmlns="http://www.w3.org/2000/svg" xmlns:xlink="http://www.w3.org/1999/xlink" x="0px" y="0px"
	 viewBox="0 0 500 500" style="enable-background:new 0 0 500 500;" xml:space="preserve">
<style type="text/css">
	.st0{fill:#1A1A1A;}
</style>
<path class="st0" d="M117.1,68.4c61.6,21.1,121.2,47.8,178.1,79.4c24.1,13.4,48.6,27,68.2,46.7c15.8,15.9,29.5,38.1,23.7,60.6
	c-5,19.4-23.5,30.8-42.9,36c-26.8,7.2-56,2.7-83.5-0.8c-30.3-3.8-61-7.7-91.4-1.6c-25.2,5-49,17.3-64.5,38.2
	c-26.5,35.8-14.8,96.7,24.3,119.1c4.7,2.7,9.8,4.7,15,6c13.1,3.2,18.7-17,5.6-20.2c-8.9-2.2-15.4-6.5-21.9-13.8
	c-6-6.8-10.7-16.1-13.3-25.3c-2.9-9.8-3.9-18.8-2.6-29.5c0.1-0.4,0.1-0.8,0.4-2.4c0.2-1.1,0.5-2.3,0.7-3.4c0.6-2.4,1.3-4.7,2.2-7
	c0.1-0.2,0.3-0.8,1-2.1c0.6-1.3,1.3-2.6,2-3.8c1.4-2.5,3-4.9,4.7-7.1c14.4-18.4,38.1-27.1,60.6-29.9c31.3-3.9,63.1,2.4,94.2,5.9
	c26.9,3,54.7,4.7,80.6-4.8c22-8.1,41.9-23.3,48.6-46.7c7.4-26.1-3.4-52.2-19.8-72.4c-17.1-20.9-40.2-36.2-63.4-49.6
	c-57-33-116.8-61.1-178.6-83.8c-7.5-2.8-15.1-5.4-22.6-8C109.8,43.8,104.3,64,117.1,68.4L117.1,68.4z"/>
</svg>
