<?xml version="1.0" encoding="utf-8"?>
<!-- Generator: Adobe Illustrator 21.0.2, SVG Export Plug-In . SVG Version: 6.00 Build 0)  -->
<svg version="1.1" id="Layer_1" xmlns="http://www.w3.org/2000/svg" xmlns:xlink="http://www.w3.org/1999/xlink" x="0px" y="0px"
	 viewBox="0 0 500 500" style="enable-background:new 0 0 500 500;" xml:space="preserve">
<style type="text/css">
	.st0{fill:#1A1A1A;}
</style>
<g>
	<path class="st0" d="M318.5,61.4c48.3,23.3,82.8,68.3,94.2,120.5c2.6,11.9,20.9,6.9,18.3-5.1C418.7,120.3,380.4,70.3,328.1,45
		C317.2,39.7,307.5,56.1,318.5,61.4L318.5,61.4z"/>
	<path class="st0" d="M141.2,385.9c-52.1-25.8-69.5-92.1-60.1-145.8c10.1-57.3,48-106.3,102.5-127.8c30.4-12,63.9-15.6,96-9.3
		c11.9,2.4,17.1-15.9,5.1-18.3c-63.6-12.6-132.7,8.6-176.5,57.1c-43.2,47.8-60,119-40.4,180.7c10.6,33.3,32,64.1,63.8,79.8
		C142.6,407.7,152.2,391.3,141.2,385.9L141.2,385.9z"/>
	<path class="st0" d="M419.9,218.9c6.2,58.5-13.8,118.7-55.6,160.6c-41.7,41.9-101.8,62.1-160.4,56.1c-12.2-1.2-12.1,17.8,0,19
		c49.3,5.1,100.2-7.7,141.5-35.2c41.4-27.6,71.6-69.5,85.8-117.1c8-26.9,10.7-55.4,7.7-83.3C437.6,206.8,418.6,206.7,419.9,218.9
		L419.9,218.9z"/>
	<path class="st0" d="M161.5,284.3c33.5,13.3,64.7,32.2,92.2,55.6c9.3,7.9,22.8-5.5,13.4-13.4c-30.1-25.6-63.8-45.8-100.5-60.4
		C155.2,261.5,150.3,279.8,161.5,284.3L161.5,284.3z"/>
	<path class="st0" d="M216,172.9c33.8,18.3,67.5,36.6,101.3,54.9c10.8,5.8,20.4-10.6,9.6-16.4c-33.8-18.3-67.5-36.6-101.3-54.9
		C214.8,150.7,205.2,167,216,172.9L216,172.9z"/>
</g>
</svg>
