<?xml version="1.0" encoding="utf-8"?>
<!-- Generator: Adobe Illustrator 21.0.2, SVG Export Plug-In . SVG Version: 6.00 Build 0)  -->
<svg version="1.1" id="Layer_1" xmlns="http://www.w3.org/2000/svg" xmlns:xlink="http://www.w3.org/1999/xlink" x="0px" y="0px"
	 viewBox="0 0 500 500" style="enable-background:new 0 0 500 500;" xml:space="preserve">
<style type="text/css">
	.st0{fill:#1A1A1A;}
</style>
<path class="st0" d="M266,39.1c27.2,65.9,95.2,102.8,165.5,88.9c15.3-3,8.8-26.4-6.4-23.4c-56.1,11.2-113.7-18.8-135.6-71.9
	C283.5,18.5,260.1,24.7,266,39.1L266,39.1z"/>
<path class="st0" d="M151.1,350.6c-22.5,14.2-43.6,30.6-62.7,49.1c-15.1,14.6-36.5,35.2-25.7,58.4c4.7,10,14.6,15.7,25.5,16.4
	c12.5,0.7,23.1-5.6,34.3-10c25.6-10.1,53.5-12,80.2-5.9c15.2,3.4,21.7-19.9,6.4-23.4c-20.1-4.5-40.5-5.5-60.9-2.5
	c-9.1,1.4-18,3.4-26.6,6.4c-9,3.1-20.4,11.4-30,11.3c-22.4-0.2,14.8-34.5,19.7-39c16.1-14.9,33.5-28,52-39.7
	C176.5,363.2,164.3,342.3,151.1,350.6L151.1,350.6z"/>
</svg>
