<?xml version="1.0" encoding="utf-8"?>
<!-- Generator: Adobe Illustrator 21.0.2, SVG Export Plug-In . SVG Version: 6.00 Build 0)  -->
<svg version="1.1" id="Layer_1" xmlns="http://www.w3.org/2000/svg" xmlns:xlink="http://www.w3.org/1999/xlink" x="0px" y="0px"
	 viewBox="0 0 500 500" style="enable-background:new 0 0 500 500;" xml:space="preserve">
<style type="text/css">
	.st0{fill:#1A1A1A;}
</style>
<path class="st0" d="M174.7,140.6C230.9,71.4,319.4,32.6,408.4,38.4c11,0.7,10.9-16.4,0-17.1c-93-6-187,35-245.8,107.2
	C155.7,137,167.7,149.1,174.7,140.6L174.7,140.6z"/>
<path class="st0" d="M129.5,309.8C86.7,327.6,63,378.6,79.8,422.6c17.4,45.5,66.5,71,113.7,61.2c27.5-5.7,51.5-22.3,68-44.8
	c7.8-10.5-9.9-20.7-17.6-10.3c-29.8,40.5-90.4,50.3-127.3,13.9c-16.3-16.1-25.2-39-21-61.9c4.1-21.8,18.2-42.7,39.1-51.4
	c5.1-2.1,8.6-6.7,7.1-12.5C140.7,312.1,134.5,307.7,129.5,309.8L129.5,309.8z"/>
</svg>
