<?xml version="1.0" encoding="utf-8"?>
<!-- Generator: Adobe Illustrator 21.0.2, SVG Export Plug-In . SVG Version: 6.00 Build 0)  -->
<svg version="1.1" id="Layer_1" xmlns="http://www.w3.org/2000/svg" xmlns:xlink="http://www.w3.org/1999/xlink" x="0px" y="0px"
	 viewBox="0 0 500 500" style="enable-background:new 0 0 500 500;" xml:space="preserve">
<style type="text/css">
	.st0{fill:#1A1A1A;}
</style>
<path class="st0" d="M324.8,48.6c20.2,14.7,41.9,30,56.6,50.5c12.1,17,17,34.7,11.5,53.5c-5.4,18.1-20,32.2-39.1,37.8
	c-23.5,6.9-49,4.4-72,13.3c-22.9,8.9-39,28.8-36.4,54.1c2.5,24.8,17.9,43.2,34.5,60.6c14.7,15.3,33.6,33.1,32.5,55.3
	c-0.4,8.6-4.6,17.8-10,25.7c-6.1,8.8-14.5,16.5-23.3,22.6c-53.3,37.3-123.9,29.1-184.9,22.4c-5.6-0.6-10.5,5.3-10.5,10.5
	c0,6.2,4.8,9.9,10.5,10.5c59.3,6.4,124.4,12.9,179.4-15.6c21.8-11.3,43.1-28.7,53.5-51.4c4.8-10.5,7.3-21.9,5.9-33.4
	c-1.6-12.9-7.2-24.7-15-35.1c-8-10.7-17.4-20.1-26.6-29.8c-8-8.4-15.7-16.9-20.6-27.6c-4-8.5-6-18.6-4-26.8
	c2.3-9.7,9.6-16.8,19.1-21.1c10.5-4.8,22.6-6.2,33.9-7.5c13.2-1.5,26.7-2.7,39.5-6.5c23.4-6.9,42.1-23,51.4-45.6
	c9.7-23.8,5.8-50-7.7-71.5c-16.6-26.4-42.7-45.1-67.5-63.1c-4.6-3.3-11.7-0.8-14.4,3.8C318,39.5,320.2,45.2,324.8,48.6L324.8,48.6z"
	/>
</svg>
