<?xml version="1.0" encoding="utf-8"?>
<!-- Generator: Adobe Illustrator 21.0.2, SVG Export Plug-In . SVG Version: 6.00 Build 0)  -->
<svg version="1.1" id="Layer_1" xmlns="http://www.w3.org/2000/svg" xmlns:xlink="http://www.w3.org/1999/xlink" x="0px" y="0px"
	 viewBox="0 0 500 500" style="enable-background:new 0 0 500 500;" xml:space="preserve">
<style type="text/css">
	.st0{fill:#1A1A1A;}
</style>
<path class="st0" d="M210.6,432.6c42.4,20.1,93.9,25.6,135.8,1.2c18-10.5,33.1-26.3,42.3-45c9.2-18.8,13.1-39.7,13.1-60.6
	c0.2-46.7-16.6-93.2-40.5-132.8c-26.4-43.7-63.5-80.6-107.2-106.9c-42.9-25.8-95-43.3-145.5-37.3c-5.6,0.7-10.5,4.3-10.5,10.5
	c0,5.2,4.8,11.2,10.5,10.5c40.5-4.8,81.3,6.2,117.3,24.7c41.5,21.2,78.2,52.5,105.2,90.6c24.8,35.1,43.9,76.9,48.6,119.9
	c4,36.6-2.3,74.9-31.6,99.8c-34.8,29.5-87,26.2-126.9,7.3c-5.1-2.4-11.3-1.4-14.4,3.8C204.1,422.8,205.4,430.2,210.6,432.6
	L210.6,432.6z"/>
</svg>
