<?xml version="1.0" encoding="utf-8"?>
<!-- Generator: Adobe Illustrator 21.0.2, SVG Export Plug-In . SVG Version: 6.00 Build 0)  -->
<svg version="1.1" id="Layer_1" xmlns="http://www.w3.org/2000/svg" xmlns:xlink="http://www.w3.org/1999/xlink" x="0px" y="0px"
	 viewBox="0 0 500 500" style="enable-background:new 0 0 500 500;" xml:space="preserve">
<style type="text/css">
	.st0{fill:#1A1A1A;}
</style>
<path class="st0" d="M425.6,448.4c-61-21-120.4-46.5-177.3-77c-27.3-14.7-54-30.5-80-47.4c-12.5-8.2-24.9-16.7-37-25.5
	c-12.1-8.7-24.6-17.5-34.5-28.8c-3.6-4.2-7-9.7-7.6-13.8c-0.3-2-0.2-3.6,0.6-5.9c-0.1,0.3,0.8-1.6,1-2c0.3-0.6,0.7-1.2,1.1-1.7
	c-0.6,0.9-0.7,0.8,0,0c0.8-0.9,1.7-1.8,2.6-2.6c0.4-0.4,0.8-0.7,1.2-1.1c-0.2,0.1-1.4,1-0.3,0.2c2.1-1.6,4.5-2.9,6.8-4.1
	c0.4-0.2,3.8-1.7,2.1-1c1.2-0.5,2.3-0.9,3.5-1.3c2.9-1,5.9-1.8,8.8-2.5c11.8-2.7,24.4-3.2,37.3-2.7c14.2,0.6,27.9,3.2,42.1,5.3
	c31.7,4.7,66.6,8.7,96-7.4c21.8-11.9,37-36.1,34-61.4c-3.6-30-27.6-51.9-50.6-68.9c-24.9-18.4-53.1-32.3-76.9-52.2
	c-5.6-4.7-10.8-9.7-15.7-15.1c-4.3-4.8-12.6-4.4-17,0c-4.8,4.8-4.3,12.1,0,17c21.1,23.7,49.6,39.4,76,56.3
	c12.8,8.2,25.4,16.8,36.6,27.2c9,8.3,18.2,18.7,22,29.9c0.4,1.3,0.8,2.6,1.1,3.9c0.2,0.6,0.8,3.8,0.6,2.9c-0.1-1,0.2,1.8,0.2,2.4
	c0.1,1.5,0.1,3.1,0,4.6c0,0.5-0.3,3.4-0.1,2.4c0.1-0.9-0.4,2.3-0.6,2.9c-0.3,1.3-0.7,2.6-1.1,3.9c-0.2,0.5-1.4,3.7-0.7,2.1
	c-4.5,10.5-11.6,17.1-21.9,22.4c-26.8,13.6-61.4,6.1-89.9,1.8c-27.4-4.2-55.9-6.8-83,0.9c-11.2,3.2-22.9,8.6-30.6,17.6
	c-10.4,12.2-11.9,27.4-5.2,41.8c6.7,14.5,20,25.5,32.5,35c12,9.2,24.4,18,36.9,26.6c25.4,17.4,51.6,33.6,78.4,48.7
	c57.1,32.1,117.1,59.1,178.6,81.6c7.7,2.8,15.5,5.6,23.3,8.3c6.1,2.1,13.1-2.4,14.8-8.4C435.8,456.6,431.8,450.5,425.6,448.4
	L425.6,448.4z"/>
</svg>
