<svg id="Layer_1" data-name="Layer 1" xmlns="http://www.w3.org/2000/svg" viewBox="0 0 750 500"><defs><style>.cls-1{fill:#47b2e4;}</style></defs><path class="cls-1" d="M66.1,428.78V148.66H84.19V112.4H192.84V58.25H547.91V112.4H656.56v36.26h18.09V429.1ZM172.54,37.91V92.07H63.9v36.25H45.79V446.49H64.87V465.6l649.17.31V147.45H695.93V111.17H676.85V92.07H587.29V57H568.21V37.91Z"/><polygon class="cls-1" points="123.43 349.34 123.43 386.34 135.74 386.34 135.74 398.69 98.79 398.69 98.79 386.34 111.1 386.34 111.1 349.34 98.79 349.34 98.79 337.01 135.74 337.01 135.74 349.34 123.43 349.34"/><polygon class="cls-1" points="234.27 337.01 234.27 349.34 221.96 349.34 221.96 398.69 209.63 398.69 209.63 349.34 197.32 349.34 197.32 337.01 234.27 337.01"/><polygon class="cls-1" points="400.56 349.34 400.56 386.34 412.88 386.34 412.88 398.69 375.94 398.69 375.94 386.34 388.25 386.34 388.25 349.34 375.94 349.34 375.94 337.01 412.88 337.01 412.88 349.34 400.56 349.34"/><polygon class="cls-1" points="258.91 349.34 258.91 361.67 277.38 361.67 277.38 374.02 258.91 374.02 258.91 386.34 277.38 386.34 277.38 398.69 246.58 398.69 246.58 337.01 277.38 337.01 277.38 349.34 258.91 349.34"/><polygon class="cls-1" points="486.78 349.66 486.78 361.99 505.27 361.99 505.27 374.31 486.78 374.31 486.78 386.66 505.27 386.66 505.27 398.99 474.47 398.99 474.47 337.31 505.27 337.31 505.27 349.66 486.78 349.66"/><polygon class="cls-1" points="623.5 349.66 623.5 361.99 641.98 361.99 641.98 374.31 623.5 374.31 623.5 386.66 641.98 386.66 641.98 398.99 611.19 398.99 611.19 337.31 641.98 337.31 641.98 349.66 623.5 349.66"/><polygon class="cls-1" points="320.5 386.34 320.5 398.69 289.71 398.69 289.71 337.01 302.02 337.01 302.02 386.34 320.5 386.34"/><polygon class="cls-1" points="363.61 386.34 363.61 398.69 332.81 398.69 332.81 337.01 345.14 337.01 345.14 386.34 363.61 386.34"/><polygon class="cls-1" points="185.01 337.01 185.01 398.69 172.69 398.69 172.69 349.34 160.38 349.34 160.38 398.69 148.05 398.69 148.05 349.34 154.22 349.34 154.22 337.01 185.01 337.01"/><polygon class="cls-1" points="555.14 337.31 555.14 398.99 542.83 398.99 542.83 349.66 530.5 349.66 530.5 398.99 518.19 398.99 518.19 349.66 524.35 349.66 524.35 337.31 555.14 337.31"/><polygon class="cls-1" points="580.39 349.66 580.39 386.66 598.88 386.66 598.88 398.99 568.08 398.99 568.08 337.31 598.88 337.31 598.88 349.66 580.39 349.66"/><polygon class="cls-1" points="437.5 349.66 437.5 386.66 449.83 386.66 449.83 374.31 443.68 374.31 443.68 361.99 462.14 361.99 462.14 398.99 425.19 398.99 425.19 349.66 431.35 349.66 431.35 337.31 462.14 337.31 462.14 349.66 437.5 349.66"/><polygon class="cls-1" points="515.23 277.52 515.23 313.77 225.53 313.77 225.53 96.2 261.74 96.2 261.74 277.52 515.23 277.52"/><polygon class="cls-1" points="134.99 186.63 134.99 277.52 207.42 277.52 207.42 313.77 116.9 313.77 116.9 277.52 98.79 277.52 98.79 186.63 116.9 186.63 116.9 150.35 207.42 150.35 207.42 186.63 134.99 186.63"/><path class="cls-1" d="M605.78,277.52H569.55V186.63h36.23Zm18.09-90.89V150.35H533.35V313.78h90.52V277.52H642V186.63Z"/><path class="cls-1" d="M352.28,223.13H316.06V132.46h36.22Zm-72.43,36.25H388.49V96.2H279.85Z"/><polygon class="cls-1" points="515.23 96.2 515.23 259.38 406.6 259.38 406.6 96.2 442.8 96.2 442.8 223.13 479.03 223.13 479.03 96.2 515.23 96.2"/><path class="cls-1" d="M66.1,428.78V148.66H84.19V112.4H192.84V58.25H547.91V112.4H656.56v36.26h18.09V429.1ZM172.54,37.91V92.07H63.9v36.25H45.79V446.49H64.87V465.6l649.17.31V147.45H695.93V111.17H676.85V92.07H587.29V57H568.21V37.91Z"/><polygon class="cls-1" points="123.43 349.34 123.43 386.34 135.74 386.34 135.74 398.69 98.79 398.69 98.79 386.34 111.1 386.34 111.1 349.34 98.79 349.34 98.79 337.01 135.74 337.01 135.74 349.34 123.43 349.34"/><polygon class="cls-1" points="234.27 337.01 234.27 349.34 221.96 349.34 221.96 398.69 209.63 398.69 209.63 349.34 197.32 349.34 197.32 337.01 234.27 337.01"/><polygon class="cls-1" points="400.56 349.34 400.56 386.34 412.88 386.34 412.88 398.69 375.94 398.69 375.94 386.34 388.25 386.34 388.25 349.34 375.94 349.34 375.94 337.01 412.88 337.01 412.88 349.34 400.56 349.34"/><polygon class="cls-1" points="258.91 349.34 258.91 361.67 277.38 361.67 277.38 374.02 258.91 374.02 258.91 386.34 277.38 386.34 277.38 398.69 246.58 398.69 246.58 337.01 277.38 337.01 277.38 349.34 258.91 349.34"/><polygon class="cls-1" points="486.78 349.66 486.78 361.99 505.27 361.99 505.27 374.31 486.78 374.31 486.78 386.66 505.27 386.66 505.27 398.99 474.47 398.99 474.47 337.31 505.27 337.31 505.27 349.66 486.78 349.66"/><polygon class="cls-1" points="623.5 349.66 623.5 361.99 641.98 361.99 641.98 374.31 623.5 374.31 623.5 386.66 641.98 386.66 641.98 398.99 611.19 398.99 611.19 337.31 641.98 337.31 641.98 349.66 623.5 349.66"/><polygon class="cls-1" points="320.5 386.34 320.5 398.69 289.71 398.69 289.71 337.01 302.02 337.01 302.02 386.34 320.5 386.34"/><polygon class="cls-1" points="363.61 386.34 363.61 398.69 332.81 398.69 332.81 337.01 345.14 337.01 345.14 386.34 363.61 386.34"/><polygon class="cls-1" points="185.01 337.01 185.01 398.69 172.69 398.69 172.69 349.34 160.38 349.34 160.38 398.69 148.05 398.69 148.05 349.34 154.22 349.34 154.22 337.01 185.01 337.01"/><polygon class="cls-1" points="555.14 337.31 555.14 398.99 542.83 398.99 542.83 349.66 530.5 349.66 530.5 398.99 518.19 398.99 518.19 349.66 524.35 349.66 524.35 337.31 555.14 337.31"/><polygon class="cls-1" points="580.39 349.66 580.39 386.66 598.88 386.66 598.88 398.99 568.08 398.99 568.08 337.31 598.88 337.31 598.88 349.66 580.39 349.66"/><polygon class="cls-1" points="437.5 349.66 437.5 386.66 449.83 386.66 449.83 374.31 443.68 374.31 443.68 361.99 462.14 361.99 462.14 398.99 425.19 398.99 425.19 349.66 431.35 349.66 431.35 337.31 462.14 337.31 462.14 349.66 437.5 349.66"/><polygon class="cls-1" points="515.23 277.52 515.23 313.77 225.53 313.77 225.53 96.2 261.74 96.2 261.74 277.52 515.23 277.52"/><polygon class="cls-1" points="134.99 186.63 134.99 277.52 207.42 277.52 207.42 313.77 116.9 313.77 116.9 277.52 98.79 277.52 98.79 186.63 116.9 186.63 116.9 150.35 207.42 150.35 207.42 186.63 134.99 186.63"/><path class="cls-1" d="M605.78,277.52H569.55V186.63h36.23Zm18.09-90.89V150.35H533.35V313.78h90.52V277.52H642V186.63Z"/><path class="cls-1" d="M352.28,223.13H316.06V132.46h36.22Zm-72.43,36.25H388.49V96.2H279.85Z"/><polygon class="cls-1" points="515.23 96.2 515.23 259.38 406.6 259.38 406.6 96.2 442.8 96.2 442.8 223.13 479.03 223.13 479.03 96.2 515.23 96.2"/></svg>