<svg id="Layer_1" data-name="Layer 1" xmlns="http://www.w3.org/2000/svg" viewBox="0 0 200 200"><path d="M129.3,18.75c1,.6,2.11,1.19,3.15,1.81l3.09,1.88a166.77,166.77,0,0,1,13.8,9.46A137.1,137.1,0,0,1,162,43,108.73,108.73,0,0,1,173.1,55.9c.84,1.15,1.71,2.28,2.47,3.49s1.59,2.39,2.36,3.6c1.52,2.46,2.91,5,4.2,7.6s2.43,5.28,3.48,8c.54,1.35,1,2.74,1.49,4.12s.9,2.78,1.28,4.2c.8,2.83,1.49,5.7,2,8.62s1,5.86,1.22,8.85a90.17,90.17,0,0,1,.34,9,80.38,80.38,0,0,1-.65,9.13l-.15,1.14c0,.39-.1.77-.17,1.15-.13.76-.26,1.52-.4,2.28s-.31,1.52-.47,2.28-.37,1.51-.55,2.27a71.08,71.08,0,0,1-3,9A65.57,65.57,0,0,1,171.18,163a73.2,73.2,0,0,1-11,8.6,86.06,86.06,0,0,1-12.38,6.53,115,115,0,0,1-26.56,7.58q-3.36.56-6.71.94c-1.12.12-2.23.25-3.34.34l-1.66.15-.83.08-.83,0q-6.63.51-13.12.39a145.4,145.4,0,0,0,15.34-.48c2.55-.19,5.11-.47,7.66-.8s5.11-.76,7.65-1.24,5.07-1.06,7.59-1.71,5-1.39,7.5-2.21,4.93-1.77,7.35-2.79,4.8-2.17,7.14-3.4,4.6-2.62,6.81-4.08a72.47,72.47,0,0,0,6.39-4.8,66.53,66.53,0,0,0,11-11.7l1.17-1.64,1.1-1.69.54-.85.51-.86c.34-.58.7-1.15,1-1.75a70,70,0,0,0,3.45-7.27,74,74,0,0,0,2.54-7.62c.18-.64.32-1.29.49-1.94l.24-1,.2-1c.13-.65.28-1.3.4-2l.33-2a89,89,0,0,0-.93-31.49c-.29-1.28-.54-2.56-.88-3.83-.16-.63-.3-1.27-.48-1.9l-.53-1.89c-.75-2.51-1.54-5-2.49-7.43l-.34-.92-.37-.91-.74-1.81c-.53-1.19-1-2.4-1.61-3.57-1.1-2.36-2.34-4.66-3.64-6.92l-1-1.69-1-1.63c-.71-1.08-1.4-2.18-2.13-3.24-1.52-2.09-3-4.22-4.64-6.19s-3.3-3.93-5-5.86c-.87-.93-1.77-1.84-2.65-2.77-.45-.45-.88-.92-1.34-1.37l-1.38-1.31-1.38-1.32c-.46-.43-.91-.88-1.4-1.29l-2.85-2.5c-.47-.43-1-.82-1.46-1.22l-1.47-1.19-1.47-1.19c-.49-.39-1-.76-1.5-1.14l-3-2.25L142.31,26c-1-.73-2.06-1.39-3.1-2.08l-1.56-1-.78-.51-.79-.48c.9.43,1.8.92,2.74,1.42s1.88,1,2.84,1.55l2.91,1.74,1.5.91,1.5,1c1,.68,2,1.35,3.07,2.08s2.05,1.51,3.1,2.3l.79.6.78.63,1.56,1.29,1.59,1.33c.53.45,1,.94,1.56,1.42A116.86,116.86,0,0,1,173.8,53.26l1.51,2.07.76,1c.25.34.5.69.73,1l2.8,4.28a91.86,91.86,0,0,1,4.9,9A98.4,98.4,0,0,1,194,110l-1,0a82.89,82.89,0,0,1-.66,14.26,74.81,74.81,0,0,1-3.28,13.91,66.84,66.84,0,0,1-6.13,12.93l-1,1.51-.49.75-.51.73-1,1.45c-.36.48-.73.95-1.09,1.42-.71.95-1.5,1.84-2.26,2.75-.38.45-.79.88-1.19,1.32s-.79.88-1.22,1.29a70.4,70.4,0,0,1-10.78,9.07c-1.91,1.34-3.91,2.54-5.92,3.7L156,176l-.77.41-.77.4-1.54.78-1.57.73a99.22,99.22,0,0,1-12.83,4.89,124,124,0,0,1-13.21,3.22c-4.44.81-8.92,1.43-13.39,1.82s-9,.64-13.47.66A112.66,112.66,0,0,1,71.27,186,87.27,87.27,0,0,1,58,181.65l-3.21-1.41-3.15-1.57-.39-.2-.38-.22-.78-.44-1.54-.88-.77-.44-.74-.48-1.5-1a78.06,78.06,0,0,1-11-8.92,86.08,86.08,0,0,1-9.37-10.71c1.51,2.25.4,1.08-.07.72l-.32-.44.32.44c-.21-.17-.29-.17,0,.35.17.26.43.65.84,1.21.2.28.43.61.71,1l1,1.24-1-1.24c-.28-.37-.51-.7-.71-1-.41-.56-.67-.95-.84-1.21-.33-.52-.25-.52,0-.35l1.06,1.41c.35.47.69,1,1.07,1.4l2.24,2.73,2.37,2.62c.19.22.4.43.6.64l.63.62,1.24,1.25a76.44,76.44,0,0,0,10.93,8.9l1.48,1,.74.48.77.45,1.53.88.77.44.38.22.39.2,3.12,1.57c1,.49,2.12,1,3.18,1.42a87.67,87.67,0,0,0,13.13,4.32l1.67.39c.56.13,1.12.28,1.68.37l3.36.64,3.37.51c.56.1,1.12.15,1.68.21l1.69.2a129.45,129.45,0,0,0,13.46.66c4.47,0,8.91-.25,13.32-.64s8.85-1,13.25-1.75c2.19-.39,4.38-.87,6.57-1.37,1.08-.27,2.18-.52,3.26-.82l1.63-.44,1.62-.47A103.05,103.05,0,0,0,150,179.47c.52-.22,1-.47,1.55-.71l1.55-.73,1.53-.78c.51-.26,1-.52,1.52-.8l1.51-.83c.5-.28,1-.58,1.48-.87,1-.57,2-1.21,2.94-1.82A75.45,75.45,0,0,0,173,164.26a68.58,68.58,0,0,0,9.07-10.8,67.59,67.59,0,0,0,6.64-12.56,74.77,74.77,0,0,0,3.92-13.66A85.79,85.79,0,0,0,194,113.12,80.07,80.07,0,0,1,190.85,135a68.77,68.77,0,0,1-4,10.41,67,67,0,0,1-5.68,9.61,69.51,69.51,0,0,1-15.56,15.72,86.47,86.47,0,0,1-19.05,10.48c-13.37,5.35-27.52,7.8-41.51,8.57l-2.64.11-1.32.06-1.33,0-2.65,0-2.65,0-1.33,0-1.33-.06-2.67-.12-2.66-.21-1.33-.1-1.34-.15L81.14,189l-2.66-.4c-.44-.07-.89-.12-1.33-.21l-1.33-.25c-.88-.17-1.76-.32-2.65-.51-1.75-.42-3.52-.79-5.26-1.31l-1.3-.36c-.44-.13-.88-.24-1.31-.39l-2.58-.85c-.87-.27-1.71-.62-2.57-.94l-1.27-.49c-.43-.16-.85-.33-1.27-.52l-2.5-1.1-.63-.28-.61-.31-1.23-.61-1.22-.62-.61-.31-.61-.34-2.4-1.39c-.2-.11-.4-.22-.6-.35l-.58-.38-1.15-.75c-.77-.51-1.56-1-2.29-1.56L41,173.13c-.73-.56-1.43-1.15-2.14-1.73l-1.07-.88c-.35-.3-.68-.61-1-.92l-2-1.85-1.94-1.95-1-1-.92-1c-.61-.68-1.22-1.35-1.82-2l-1.74-2.12c-.28-.35-.58-.7-.86-1.06l-.81-1.1c-.54-.73-1.1-1.45-1.62-2.19L22.5,153c-.26-.38-.52-.75-.76-1.14L21,150.73c-.47-.77-.95-1.54-1.42-2.32L18.28,146c-.22-.4-.45-.79-.66-1.2L17,143.62l-1.22-2.43-1.12-2.48-.56-1.24-.52-1.26-1-2.52-.93-2.56-.46-1.28c-.14-.43-.27-.87-.41-1.3L9.94,126c-.26-.87-.49-1.75-.73-2.62s-.49-1.75-.68-2.64L7.92,118c-.21-.89-.35-1.79-.53-2.68-.37-1.78-.61-3.59-.88-5.39l-.1-.68-.07-.68-.15-1.36L6,105.88,6,105.2c0-.23,0-.46,0-.69-.11-1.82-.27-3.64-.29-5.48a101.26,101.26,0,0,1,.29-11l.28-2.75c0-.46.09-.92.15-1.38l.2-1.37c.14-.91.27-1.83.42-2.74l.53-2.73.27-1.37.33-1.35.67-2.71.79-2.68.4-1.35.47-1.32.93-2.65L12.42,61l.53-1.3.6-1.27,1.19-2.55A85.81,85.81,0,0,1,27.42,37.28c.43-.48.9-1,1.43-1.6l1.76-1.79.95-1,1-1c.69-.64,1.39-1.31,2.11-1.95,1.48-1.25,2.93-2.52,4.35-3.57l1-.79c.33-.26.65-.51,1-.73l1.76-1.24A87.9,87.9,0,0,1,71.11,11.86a74.69,74.69,0,0,1,30.66-.51c-1.33.06-1.07.5-.6,1s1.16,1,.78,1.31a2.71,2.71,0,0,1-1.51.21c-.44,0-1,0-1.65-.12s-1.46-.08-2.41-.15l-.73-.07c-.25,0-.52,0-.79,0l-1.77-.09-1-.05c-.33,0-.68,0-1,0l-2.28,0a80.18,80.18,0,0,0-12.1.91l.16,1a61.62,61.62,0,0,1,13.29-.37c.5.05,1,.07,1.47.12l1.43.2,1.38.18c.23,0,.45.06.67.11l.66.13,2.52.51c.8.19,1.57.41,2.3.61l1.08.3c.36.1.69.24,1,.35l1.89.67c.6.2,1.16.46,1.68.69s1,.46,1.46.68l.66.31.6.33,1,.62a13.74,13.74,0,0,1,1.47,1c.73.6.9,1,.47,1.09a3.46,3.46,0,0,1-1.11,0,16.37,16.37,0,0,1-1.94-.34c-.4-.08-.84-.19-1.31-.3L106,21.71l-1.81-.39L102.12,21a73.27,73.27,0,0,0-11-1.08,68.72,68.72,0,0,0-15.48,1.52c-.66.12-1.32.29-2,.46l-2,.5-2,.6c-.66.2-1.33.38-2,.63l-2,.7-.49.18-.49.2-1,.4-1,.4c-.32.13-.66.26-1,.41l-1.94.9c-.33.15-.66.29-1,.46l-1,.49-1.92,1-1.89,1.09-1,.54-.92.59-1.87,1.19c-.61.4-1.21.84-1.82,1.26-1.23.83-2.38,1.78-3.58,2.68-.3.22-.58.47-.87.71l-.86.73-.86.73-.43.36-.41.39-1.67,1.54-.42.39-.4.4-.79.81a75.35,75.35,0,0,0-6,6.91L30.81,50.9c-.23.31-.47.61-.69.94l-.64,1-1.29,1.94-1.19,2-.6,1-.55,1-1.1,2.06-1,2.12L23.24,64c-.17.35-.3.72-.45,1.08a75.13,75.13,0,0,0-5.14,18.15c-.11.79-.24,1.57-.35,2.36L17.06,88l-.12,1.18-.08,1.19-.14,2.38a92.92,92.92,0,0,0,1.29,19,97.67,97.67,0,0,0,6.72,22,85.4,85.4,0,0,0,6.42,11.92A73.18,73.18,0,0,0,49.2,165.08c.45.32.88.66,1.33,1l1.38.9,1.37.9,1.42.82,1.42.82,1.48.75,1.48.75c.5.24,1,.45,1.51.68A75.67,75.67,0,0,0,73.22,176a105.44,105.44,0,0,0,27.13,2.88c3.18-.06,6.38-.17,9.61-.44s6.44-.61,9.65-1.09a109.27,109.27,0,0,0,18.92-4.54A80.71,80.71,0,0,0,156,164.56,60.86,60.86,0,0,0,170.35,152a55.94,55.94,0,0,0,9.41-16.48,66.9,66.9,0,0,0,3.83-18.78,83.17,83.17,0,0,0-1.08-19.24,90.41,90.41,0,0,0-5.19-18.39c-.41-1.07-.92-2.16-1.42-3.31s-1.09-2.29-1.72-3.46c-.31-.59-.62-1.19-1-1.77s-.67-1.2-1-1.79L171.1,67l-1.2-1.79a98.79,98.79,0,0,0-11-13.73,132.34,132.34,0,0,0-11.8-10.75l-2.59-2.08-2.35-1.78c-.73-.55-1.38-1.08-2-1.54s-1.15-.86-1.61-1.22c-.68-.51-1.27-1-1.78-1.36s-1-.73-1.35-1a11,11,0,0,1-1.5-1.34c-.54-.63-.23-.76.36-.73A138.22,138.22,0,0,1,153,43.4a109,109,0,0,1,15.53,17.06l.86,1.16c.29.38.54.8.81,1.19l1.59,2.4c.54.79,1,1.61,1.51,2.43l.37.61.36.62.7,1.25a85.38,85.38,0,0,1,4.83,10.35,90.48,90.48,0,0,1,5.54,22.06c.25,2.3.45,4.62.5,6.93.06,1.16,0,2.32.05,3.47,0,.58,0,1.16-.05,1.74s0,1.15-.07,1.73l-.12,1.72c0,.58-.11,1.15-.16,1.73-.09,1.15-.28,2.28-.42,3.42-.09.57-.19,1.14-.29,1.7l-.14.85c-.05.29-.12.57-.18.85l-.35,1.68-.41,1.67-.21.83-.24.83-.48,1.64L182,135c-.09.27-.17.54-.27.81l-.31.8a58.83,58.83,0,0,1-2.76,6.24c-.54,1-1.06,2-1.66,3l-.43.73c-.15.25-.29.49-.45.73l-.94,1.42a57.19,57.19,0,0,1-4.14,5.4l-.55.65-.58.63-1.16,1.24c-.81.8-1.6,1.62-2.45,2.37-.42.38-.83.78-1.27,1.14l-1.3,1.11c-.43.37-.89.71-1.33,1.06l-.67.53-.69.51-1.39,1-1.41,1c-.47.33-1,.63-1.44.93s-1,.62-1.46.9c-2,1.18-4,2.24-6.06,3.25a101.23,101.23,0,0,1-26.41,8.16c1.13-.18,2.24-.41,3.36-.61s2.23-.45,3.33-.71c2.22-.5,4.42-1.09,6.61-1.73s4.34-1.38,6.47-2.17,4.24-1.69,6.29-2.67,4.09-2,6-3.18l.74-.42.72-.45,1.45-.91c.94-.64,1.9-1.26,2.8-1.94s1.82-1.37,2.72-2.07c.44-.36.87-.73,1.3-1.1l.65-.55.63-.57,1.26-1.16,1.21-1.2c.41-.4.79-.82,1.18-1.23s.79-.83,1.15-1.27l1.11-1.3c.37-.42.71-.89,1.06-1.33.73-.88,1.36-1.83,2-2.75.32-.48.62-1,.94-1.44l.47-.71.44-.74.88-1.48.81-1.51.4-.75.37-.78c.25-.52.5-1,.74-1.55.44-1.06.93-2.1,1.32-3.19a62.39,62.39,0,0,0,2.11-6.59l.41-1.69c.14-.57.24-1.14.37-1.71.25-1.13.42-2.28.62-3.43.09-.58.15-1.16.23-1.73l.12-.87c0-.29.05-.58.08-.87l.17-1.75.11-1.75.05-.88,0-.88.05-1.76v-1.76c0-.3,0-.59,0-.89l0-.88c0-2.35-.27-4.7-.53-7a90.48,90.48,0,0,0-5.41-22A87.33,87.33,0,0,0,175,70.22c-.91-1.66-1.84-3.3-2.88-4.89l-1.56-2.39-.78-1.19-.84-1.15a108.8,108.8,0,0,0-15.22-17l-.52-.49-.55-.47-1.09-.93-2.17-1.87L147.1,38c-.76-.59-1.49-1.21-2.27-1.76l-2.32-1.71c-.39-.28-.77-.57-1.17-.84l-1.19-.81-2.38-1.63c-.79-.53-1.61-1-2.42-1.55,1.21.17,2.42.31,1.07-1.1l-1.33-.84c-.82-.53-2-1.2-3.29-2l-2-1.17-2.1-1.14-2-1.09c-.63-.34-1.24-.63-1.78-.91L121,19.81c-.89-.51-1.7-1-2.42-1.43s-1.39-.84-2-1.21-1.1-.68-1.55-1c-1.79-1.18-2.47-1.89-2.33-2.23s1.13-.3,2.66,0c.77.15,1.67.36,2.68.63s2.11.64,3.28,1c.59.22,1.21.42,1.83.67l1.92.75,2,.8C127.87,18.12,128.57,18.44,129.3,18.75Z"/><path d="M74.61,141.08l.08-2.72c.3-16.69-.38-33.36-.37-51.9,0-3.24,0-6.6,0-10,0-.85,0-1.71,0-2.57L74.21,71l-.09-3.86-.05-1.94v-.85s0,0,0,0h.06l1-.17,3.81-.69,3.43-.64,5-1c3.32-.68,6.59-1.38,9.73-2.08q-5.61,1.15-11.3,2.21l-2.85.52-3.64.65-4.44.77c-.36.07-.75.12-1.1.2l0,1.12,0,2.25q.06,3.72.14,7.46L74,80.72c0,3.91.1,7.83.16,11.73.18,15.61.2,31.08-.26,45.86a55.59,55.59,0,0,1-1.32-10.68q0-15-.27-29.64l1,0c-.36-6.88-.56-13.66-.67-20.38q-.11-6.73-.21-13.4l0-1.09V63s0,0,0,0h.1l.28,0,.54-.1,2.17-.37,4.32-.73,5.5-1c6.5-1.15,13-2.45,19.46-4,3.24-.78,6.48-1.61,9.71-2.53l2.43-.7L119,52.9l2.12-.63c2.85-.85,5.75-1.73,8.73-2.65,0,.36,0,.75.06,1.13.08-1.9.3-1.14.46-1v0c.1.12.18,0,.19-1.14-.44.11-1.13.29-2.13.57,1-.28,1.69-.46,2.13-.57,0,1.14-.09,1.26-.19,1.14,0-.29,0-.58,0-.85l-9,2.58c-1.49.42-3,.84-4.46,1.24l-2.42.66q-4.8,1.29-9.59,2.44Q95.32,58.18,85.74,60l-2.39.45-2.59.47-4.48.79L74,62.09l-1.13.2-.56.1-.28,0-.14,0-.07,0s0,0,0,.07Q72,67.1,72,71.67c0,1.7,0,3.4.07,5.1.07,6.63.15,13.31.22,20.1q-.15-10.07-.37-20-.17-7.26-.34-14.48v-.08h.07l.14,0,.29-.05.58-.1,1.15-.21,2.31-.41,4.6-.84,1.38-.25,1.21-.23,2.41-.47q9.63-1.91,19.18-4.23,4.78-1.17,9.54-2.44l2.5-.68c1.52-.4,3-.84,4.56-1.27l9.16-2.6q.44,15,.87,30.22.33,11.73.66,23.67c.05,1.85.14,5.56.19,7.41-.54,7.43-.59,14.85-.4,22.25-1.27-1.81-3.52,5.66-3.42-9.17l-1,0c-.84,14.85-4.11,20.5-5.48,5.71-1.41-16.65-1-38.9-2-59.26L120,65.9l-.07-1.71,0-.81v0c0-.06-.07-.07-.1-.07l-.06.06s0,0,0,0h0s0,0-.08,0c-2.51.69-5,1.34-7.55,2-5.06,1.24-10.14,2.35-15.26,3.29L89.09,70l-3.9.67-2,.33-.13,0h-.48c-.08,0-.22,0-.19.08s0,.32-.05.49c0,2.51.06,5,.08,7.54.13,10.66.22,21.31,0,31.51,0,7.42,1,20.37.38,24.1-.28,2.67-.8,2.79-1.39,2.39-.25-12.18-.49-24.32-.73-36.33q-.07-11.05-.12-22.1V71.2l0-1.13v-.4s0,0,.06,0h.07l.59-.06,1.11-.12.27,0,.69-.11,1.37-.21,2.75-.45-2.7.4-1.35.2-.68.1h-.33l-1.14.11c-.35.07-1-.07-.83.44l0,1.16,0,.62v6.82c0,7.37.13,14.82.25,22.32.09,12,.2,24,.25,36-.51-.42-1-.83-1.51-.08l.15,5.55c-1,7.45-2.79,5.63-4.11,2C75.23,143.31,74.92,142.25,74.61,141.08Z"/><path d="M126.29,79.91l-.66.07c-4,.59-7.72,2-12.1,2.87a77.31,77.31,0,0,0-9.4,2.47c7.2-1.51,14.49-3.95,21.73-4.62a4.07,4.07,0,0,1-2.11,1.8c-2.35.54-4.65,1.11-6.92,1.71l-.29-.93a45,45,0,0,1-9.41,2.61,41.16,41.16,0,0,0-9.37,2.73c.27.06.18.29.17.46h0c0,.14,0,.24.45.14-.4.1-.46,0-.45-.14,6.29-1.87,12.24-3.31,18.64-4.8-4.93,1.3-9.72,2.68-14.56,4S92.29,91,87.19,92.16l-1.73.39A14,14,0,0,0,80,92.7c.18-1.29-2-3.33,1.52-3.56l-.21-1c-3.69-.49-5.61-3.59-2.42-5.24,3.59-1.75,8.86-1.91,13.36-3.54a56.51,56.51,0,0,1,10-2.63c4.77-.56,9.67-2.28,14.5-2.81,1.73-.29,4.38-1.95,5.43-1.53.7.13.9.62,1,1.2-2.74.83-5.45,1.7-8.18,2.44-3.38.77-6.78,1.48-10.23,2a55.4,55.4,0,0,0,10.23-2c2.75-.63,5.49-1.31,8.25-2a2.72,2.72,0,0,0,.45,1.43l1.24-.42c2.06.59,2.21,2.35,1.77,3.79C126.62,79.21,126.47,79.56,126.29,79.91Z"/><path d="M78.47,148.21l-.86,0a74.94,74.94,0,0,0-7.84.67l-4,.51-2.08.23-.53.05-.82.1c-.27,0-.55.06-.82.07s-.54,0-.81,0a9.35,9.35,0,0,1-2.22-.36,9,9,0,0,1-2.07-1,8.22,8.22,0,0,1-3-3.48,9.21,9.21,0,0,1-.72-4.59v-.88l0-.24.11-.93.06-.46c0-.15.07-.3.1-.45l.2-.89-.28,1a4.52,4.52,0,0,0-.11.53l-.09.53-.09.53-.05.27c0,.09,0,.22,0,.33l-.07,1.36a7.72,7.72,0,0,0,0,1.36l.07.68.14.66a8.31,8.31,0,0,0,1.08,2.48A7.9,7.9,0,0,0,58,149.66a8,8,0,0,0,2.72.39c.23,0,.46,0,.7-.05s.47,0,.71-.07l.71-.1.34,0,.23,0a108.58,108.58,0,0,1,14.29-.83,6.24,6.24,0,0,1-3.12,1.56c-3.1.27-6.15.6-9.17,1l-.16-1-1.57.37-.44.08-.7.13-.7.12-.7.09a8.86,8.86,0,0,1-5.24-1.1,8.72,8.72,0,0,1-2.09-1.63,9,9,0,0,1-1.53-2.16,9.42,9.42,0,0,1-1-5.15,18.47,18.47,0,0,1,.22-2.44l.17-1c.06-.33.16-.65.24-1s.17-.65.26-1l.33-.94a17.69,17.69,0,0,1,.76-1.86,24.49,24.49,0,0,1,4.63-6.8c-.4.17-.35-.14-.38-.31l.06-.06-.06.06c0-.16-.14-.21-.7.27.56-.48.67-.43.7-.27a20.14,20.14,0,0,0-5,6.72c-.26.63-.56,1.25-.76,1.91l-.32,1c-.1.33-.17.66-.25,1s-.16.67-.23,1l-.16,1-.07.5,0,.25v.33l-.05,1.39a10.16,10.16,0,0,0,4.63,9.38,9.92,9.92,0,0,0,5.3,1.54c.24,0,.48,0,.72,0l.74-.06,1.45-.2,1.58-.16-1.22.15-.31,0-.52.08-1.15.16c-.39,0-.77.08-1.15.1s-.75,0-1.12,0a5.32,5.32,0,0,1-.56-.06c-.18,0-.37-.05-.55-.09l-.54-.13-.26-.06-.27-.09a10,10,0,0,1-3.78-2.19,10.49,10.49,0,0,1-2.5-3.57,10.23,10.23,0,0,1-.81-4.36l0-1.13,0-.56a4,4,0,0,1,0-.52c.07-.54.14-1.08.22-1.62a20.88,20.88,0,0,1,2.13-6.21,20.23,20.23,0,0,1,4-5.29,19.13,19.13,0,0,1,5.73-3.7,19.39,19.39,0,0,1,3.32-1c.28,0,.56-.13.85-.17l.87-.11.87-.1.53,0h.6l.27,0H70l.28,0,.29,0,.36.09.39.13a3,3,0,0,1,.38.15,5.45,5.45,0,0,1,1.35.87,4.81,4.81,0,0,1,1.34,1.72,5.65,5.65,0,0,1,.33,4.08,5.76,5.76,0,0,1-.83,1.64,5.51,5.51,0,0,1-.81.88,6.15,6.15,0,0,1-.79.58l-.32.18-.27.13-.17.08-.15.06-.2.08-.15.05-.24.07-.62.17c-.34.08-.62.14-1,.2l-.34,0-.23,0-.36,0h-.68l-.17,0a3.78,3.78,0,0,1-.47-.06l-.46-.11a5.62,5.62,0,0,1-1.5-.65c-.82-.73-.72-.15-2-2.26-1.19-1.86-.06-5.07,0-4.8a5.71,5.71,0,0,1,1-1.39,4.82,4.82,0,0,1,.6-.55,4.13,4.13,0,0,1,.59-.41l.13-.08.11-.06.22-.12.23-.11.17-.07.14-.05c.28-.12.43-.16.59-.22l.41-.13,1.36-.39,1.29-.34,2.28-.58a23,23,0,0,0,7-.69c-.28,1.33,2.53,3.17-2.07,3.77l.23,1c4.78.11,7.2,3,3,5.07a28.23,28.23,0,0,1-3.93,1.38c-1.41.39-2.89.75-4.36,1.1l-1.07.27-.48.13-.18.05H70s0,0,0,0l-.17-.46-.29-.83-.29-.77c-.22-.56-.36-.95-.55-1.39l-.14-.32-.1-.26c-.08-.17-.16-.35-.24-.5a2.75,2.75,0,0,0-.2-.38A.83.83,0,0,0,68,127l0-.06,0,0h0s0,0,0,0l0,0s0,0,0-.06a.52.52,0,0,0,0-.14c0-.06,0-.13,0-.19a18.84,18.84,0,0,0-.16-2.24c0-.45-.1-.89-.16-1.34s-.13-.9-.19-1.32l0-.16v-.07h.07l.12,0h.05a.1.1,0,0,1,0,0l.08.3.16.59c.11.4.22.8.34,1.19s.23.78.35,1.14c0,.17.11.35.17.52s.11.32.17.47l.17.42a1.54,1.54,0,0,0,.08.19c0,.06,0,.1.07.15l.08.13a.47.47,0,0,0,.06.09l0,0h0s0,0,0,0a0,0,0,0,0,0,0l0,.05a.5.5,0,0,0,0,.12,2.14,2.14,0,0,0-.06.35c0,.15,0,.31,0,.46v.24l0,.29c0,.39,0,.75,0,1.24v1.45l0,.81v.49h0a5.9,5.9,0,0,0-2.67.8A9.28,9.28,0,0,0,64.9,134a4.08,4.08,0,0,1-.36.36l-.18.17-.16.2c-.11.13-.23.25-.34.37s-.2.28-.31.41l-.16.2a2.39,2.39,0,0,0-.13.21c-.1.15-.19.29-.3.43s-.16.3-.25.44a2.91,2.91,0,0,0-.26.45l-.24.47-.07.11,0,.12-.11.25c-.06.16-.16.32-.22.48s-.13.34-.2.51a4.37,4.37,0,0,0-.25.72l-.11.38-.06.07a.83.83,0,0,0-.16.29.66.66,0,0,0,.25.65.72.72,0,0,0,.36.14l.23,0h.24l.3,0,.62-.05c1.63-.14,3.26-.23,4.86-.24,2.32-.13,6.18-1.49,7.43-.95a1.1,1.1,0,0,1,1,1.32c-3.75.51-7.48,1.09-11.19,1.58l-1.71.17-.85.08-.22,0h-.39a7.42,7.42,0,0,1-.82,0,1.92,1.92,0,0,1-.75-.26,2,2,0,0,1-.9-1.2,2.25,2.25,0,0,1,.09-1.41,2.65,2.65,0,0,0-.22.69,2,2,0,0,0,0,.76,2,2,0,0,0,.91,1.27,1.91,1.91,0,0,0,.78.27,5.1,5.1,0,0,0,.87,0,5.6,5.6,0,0,0,.59-.06l.86-.1,1.73-.22c3.72-.38,7.43-.77,11.15-1.1a2.13,2.13,0,0,0,.2,1.49l1.7-.27c2.47.84,2.17,2.62,1.23,4C79.07,147.54,78.79,147.87,78.47,148.21Z"/><path d="M128.58,137.72h-.86a74.71,74.71,0,0,0-7.84.67l-4,.51-2.07.23-.53,0-.82.09c-.28,0-.55.06-.82.08s-.55,0-.81,0a8.2,8.2,0,0,1-5.71-2.49,8.33,8.33,0,0,1-1.76-2.72c-.08-.26-.18-.52-.25-.78s-.14-.53-.18-.8a11.22,11.22,0,0,1-.14-1.64l0-1.42v-.35a.81.81,0,0,1,0-.16l0-.14.06-.56c.06-.37.08-.74.16-1.1l.25-1.07-.3,1.08c-.09.37-.13.74-.2,1.11a20.11,20.11,0,0,0-.24,2.63,8.5,8.5,0,0,0,1.08,4.54,8.13,8.13,0,0,0,1.44,1.86,8.45,8.45,0,0,0,1.93,1.37,8.81,8.81,0,0,0,2.26.74l.59.07c.2,0,.4,0,.6,0h.61l.61-.05c.41,0,.82-.11,1.23-.15l.53-.07.39,0,1.57-.17a98.55,98.55,0,0,1,12.41-.63A6.24,6.24,0,0,1,124.7,140c-3.1.26-6.16.59-9.17,1l-.16-1c-.52.13-1,.25-1.55.36l-.41.08-.69.13-.69.12-.69.08a6.81,6.81,0,0,1-1.35.05,3.71,3.71,0,0,1-.67-.05,4.77,4.77,0,0,1-.66-.1l-.65-.15-.63-.21a4.23,4.23,0,0,1-.62-.25,6.45,6.45,0,0,1-.59-.29,8.73,8.73,0,0,1-2.1-1.57,10,10,0,0,1-.86-1A10,10,0,0,1,102,135c-.07-.21-.13-.42-.2-.62s-.07-.21-.1-.31l-.07-.32a9.88,9.88,0,0,1-.24-2.61l.09-1.35,0-.68a1.85,1.85,0,0,1,0-.27l0-.25a18.94,18.94,0,0,1,.4-2l.26-1c.09-.32.22-.64.33-1s.21-.64.34-1l.41-.94.21-.47c.07-.15.16-.3.23-.45l.48-.91.12-.23.14-.22.27-.44c.19-.29.36-.59.56-.88a26.51,26.51,0,0,1,2.67-3.31c-.39.17-.34-.14-.38-.32l.07,0-.07,0c0-.15-.13-.21-.69.28.56-.49.66-.43.69-.28a21.23,21.23,0,0,0-2.93,3.23c-.2.3-.4.6-.59.9a10.67,10.67,0,0,0-.57.91,21,21,0,0,0-1,1.89l-.42,1c-.13.32-.23.66-.34,1s-.23.67-.32,1l-.24,1a15.85,15.85,0,0,0-.36,2.06l0,.26a2,2,0,0,0,0,.29l0,.71-.07,1.43c0,.23,0,.46,0,.68s0,.46,0,.68l.1.66c0,.22.1.43.14.65a11,11,0,0,0,.4,1.27c.08.21.18.41.27.61l.14.3.16.29a9.92,9.92,0,0,0,8.85,5.17c.24,0,.47,0,.71,0s.47,0,.71-.06l1.38-.18,1.54-.17-1.51.2-1.36.19c-.48.07-1,.1-1.42.15l-.7,0c-.23,0-.46,0-.69,0l-.68-.09c-.23,0-.45-.1-.67-.15l-.34-.08-.32-.11-.65-.22a10.61,10.61,0,0,1-1.22-.6,9.62,9.62,0,0,1-2.16-1.64,9.8,9.8,0,0,1-1.64-2.15,9.92,9.92,0,0,1-.61-1.22,11.47,11.47,0,0,1-.43-1.29c0-.23-.13-.44-.16-.67s-.08-.45-.11-.68,0-.46-.06-.69,0-.47,0-.7l.06-1.56,0-.78.07-.56.16-1.12c0-.38.15-.74.23-1.11a10.38,10.38,0,0,1,.27-1.1l.34-1.09.18-.54.22-.52.45-1a20.62,20.62,0,0,1,5.69-7.19,19.3,19.3,0,0,1,8.64-3.84l1.2-.15.6-.07.35,0h.73l.33,0h.13l.19,0c.13,0,.25,0,.38.06l.25.06.31.1a3.92,3.92,0,0,1,.6.23l.42.21a5.63,5.63,0,0,1,1.28,1,5.75,5.75,0,0,1,1,1.37,5.57,5.57,0,0,1,.19,4.42,5.69,5.69,0,0,1-.78,1.39,5.49,5.49,0,0,1-.78.82c-.14.12-.29.23-.44.34l-.17.11-.27.17L122,121l-.16.08-.24.1a3.61,3.61,0,0,1-.51.19,4.7,4.7,0,0,1-.52.15l-.37.1-.68.14-.4.06-.25,0-.18,0H118l-.51,0h-.13l-.33,0a5.81,5.81,0,0,1-1-.27,7,7,0,0,1-.68-.31,5.57,5.57,0,0,1-2.9-4.91A5.56,5.56,0,0,1,114,112.5l.23-.22a6.4,6.4,0,0,1,.5-.41l.27-.18.13-.08.16-.09.31-.16.28-.13.19-.08.26-.1.65-.21c.36-.12.67-.21,1-.29.61-.18,1.2-.33,1.78-.49l2.29-.58a23.54,23.54,0,0,0,7-.69c-.28,1.33,2.53,3.17-2.08,3.77l.23,1c4.78.12,7.22,3.07,3,5.07a28.69,28.69,0,0,1-3.93,1.38c-1.4.4-2.89.75-4.35,1.11l-1.07.27-.48.12-.18.05-.06,0h0s0,0,0,0l-.14-.42-.31-.84-.16-.42-.08-.21-.06-.18c-.17-.47-.35-.93-.55-1.38-.08-.21-.15-.37-.23-.56l-.12-.26c0-.09-.1-.19-.12-.25a1.9,1.9,0,0,0-.2-.37l0-.08,0,0s0,0,0,0l0,0h0s0,0,0,0l0,0a.11.11,0,0,0,0,0s0,0,0-.06v-.09a1.08,1.08,0,0,0,0-.18,1.75,1.75,0,0,0,0-.23v-.24l0-.54-.06-.59c0-.22,0-.44-.06-.65-.05-.43-.1-.89-.16-1.33l-.19-1.32,0-.17v-.06h.07l.12,0h0l.25.93.33,1.19.18.58.17.55.18.53c0,.16.11.32.17.47l.16.42c0,.11.13.26.16.34a2.13,2.13,0,0,0,.13.21s0,0,0,0,0,0,0,0,0,0,0,0h0v0a.14.14,0,0,0,0,.06.35.35,0,0,0,0,.12,2,2,0,0,0-.06.35v.1l0,.12,0,.25c0,.16,0,.33,0,.49,0,.42,0,.84,0,1.26,0,.19,0,.47,0,.72v.76l0,.76v.5h0a5.86,5.86,0,0,0-2.66.8,8.93,8.93,0,0,0-1.63,1.16l-.36.36-.18.17-.16.19-.34.38c-.1.14-.2.28-.31.41l-.16.2-.14.21a4.43,4.43,0,0,1-.29.42c-.09.15-.16.3-.26.45a4,4,0,0,0-.25.45c-.08.16-.16.31-.25.46l-.06.12,0,.12-.11.24c-.07.17-.16.32-.23.49s-.12.34-.19.51l-.1.22a2,2,0,0,0-.07.23l-.14.48,0,.12,0,.06h0l0,0-.07.09a.57.57,0,0,0-.08.54.69.69,0,0,0,.45.43l.35.07,2-.16c1.37-.1,2.73-.17,4.08-.17,2.31-.13,6.18-1.49,7.43-.95a1.1,1.1,0,0,1,1,1.31c-3.75.52-7.49,1.09-11.19,1.58l-1.67.17-.84.08-.41,0H112c-.28,0-.55,0-.81,0a1.9,1.9,0,0,1-.74-.24,1.73,1.73,0,0,1-.58-.49,2.08,2.08,0,0,1-.36-.65,2.14,2.14,0,0,1-.1-.71,2.93,2.93,0,0,1,.13-.68l0-.11,0,.12a2.22,2.22,0,0,0-.19.68,2.13,2.13,0,0,0,.07.75,2,2,0,0,0,.95,1.2,1.92,1.92,0,0,0,.78.24,6,6,0,0,0,.84,0h.22l.39-.05.85-.1,1.69-.22c3.71-.37,7.43-.76,11.14-1.09a2.18,2.18,0,0,0,.2,1.49l1.71-.28c2.47.84,2.17,2.63,1.23,4C129.18,137.06,128.9,137.39,128.58,137.72Z"/></svg>