<svg id="Layer_1" data-name="Layer 1" xmlns="http://www.w3.org/2000/svg" viewBox="0 0 200 200"><path d="M129,18.49c1,.6,2.11,1.19,3.15,1.81l3.09,1.88a166.77,166.77,0,0,1,13.8,9.46,137.1,137.1,0,0,1,12.66,11.11,107.73,107.73,0,0,1,11.09,12.89c.84,1.15,1.72,2.28,2.48,3.5s1.59,2.38,2.36,3.6c1.52,2.45,2.9,5,4.19,7.6s2.44,5.27,3.49,8c.53,1.36,1,2.74,1.48,4.12s.9,2.79,1.29,4.21c.8,2.82,1.49,5.69,2,8.61s1,5.86,1.22,8.85.37,6,.34,9a85.27,85.27,0,0,1-.65,9.13l-.16,1.15c0,.38-.1.76-.17,1.14l-.39,2.29-.48,2.27c-.15.76-.36,1.52-.55,2.27a68.94,68.94,0,0,1-3,8.95,65.57,65.57,0,0,1-15.42,22.38,72.42,72.42,0,0,1-11,8.6,86.7,86.7,0,0,1-12.39,6.54,114.86,114.86,0,0,1-26.55,7.57c-2.25.38-4.49.68-6.72.94-1.11.13-2.23.25-3.33.35l-1.67.15-.82.07-.83.06c-4.42.34-8.81.47-13.12.39a148.31,148.31,0,0,0,15.34-.48c2.55-.2,5.11-.48,7.66-.81s5.11-.76,7.65-1.24,5.07-1.06,7.59-1.7,5-1.4,7.5-2.22,4.93-1.77,7.35-2.78,4.8-2.18,7.13-3.41,4.61-2.62,6.82-4.08a74.38,74.38,0,0,0,6.39-4.79,66.94,66.94,0,0,0,11-11.71l1.16-1.64c.38-.56.74-1.12,1.1-1.69l.55-.84.51-.87c.34-.58.69-1.15,1-1.74a69.15,69.15,0,0,0,3.46-7.28,79.13,79.13,0,0,0,2.54-7.62c.17-.64.32-1.29.48-1.94l.24-1,.21-1c.13-.65.27-1.3.39-2l.34-2a89,89,0,0,0-.94-31.49c-.28-1.28-.54-2.57-.87-3.83-.16-.64-.31-1.28-.49-1.91L188,85.57c-.75-2.5-1.55-5-2.49-7.43l-.34-.92-.37-.91-.74-1.81c-.53-1.19-1-2.39-1.61-3.56-1.11-2.37-2.34-4.67-3.65-6.93l-1-1.68-1.06-1.63c-.71-1.09-1.39-2.18-2.12-3.25-1.52-2.09-3-4.21-4.64-6.19s-3.31-3.93-5-5.85c-.87-.94-1.77-1.85-2.65-2.77-.45-.46-.88-.93-1.34-1.37L159.64,40l-1.38-1.31c-.46-.44-.92-.89-1.4-1.3L154,34.84c-.47-.42-1-.82-1.45-1.22l-1.47-1.19-1.47-1.19c-.49-.39-1-.75-1.5-1.14l-3-2.25L142,25.7c-1-.73-2.07-1.39-3.1-2.07l-1.56-1-.78-.51-.8-.48c.91.43,1.81.93,2.74,1.42s1.88,1,2.85,1.55l2.91,1.74,1.5.91,1.5,1c1,.68,2,1.35,3.06,2.08s2.06,1.52,3.11,2.31l.79.59c.26.2.51.42.77.63l1.57,1.3,1.58,1.32c.53.45,1,.94,1.57,1.42A117,117,0,0,1,173.52,53L175,55.07l.75,1c.26.35.51.69.74,1l2.8,4.28a94,94,0,0,1,4.9,9,98.23,98.23,0,0,1,9.48,39.29l-1,0a83.79,83.79,0,0,1-.66,14.25A74.84,74.84,0,0,1,188.78,138a66.93,66.93,0,0,1-6.13,12.94l-1,1.5-.49.75-.51.73-1,1.46c-.35.47-.72.94-1.08,1.41-.71.95-1.5,1.84-2.26,2.75-.39.46-.8.88-1.19,1.32s-.8.88-1.22,1.3a70.91,70.91,0,0,1-10.78,9.06c-1.92,1.34-3.91,2.54-5.92,3.7l-1.53.83-.76.42-.77.39-1.55.78L151,178a101.22,101.22,0,0,1-12.83,4.88A124.58,124.58,0,0,1,125,186.13c-4.45.81-8.92,1.44-13.4,1.82s-9,.64-13.46.66A112.16,112.16,0,0,1,71,185.69a88.35,88.35,0,0,1-13.23-4.29L54.55,180l-3.15-1.57-.39-.2-.39-.22-.77-.44-1.54-.88-.77-.44-.75-.48-1.49-1a77.43,77.43,0,0,1-11-8.91,84.66,84.66,0,0,1-9.37-10.72c1.51,2.25.39,1.08-.07.72l-.33-.43.33.43c-.21-.16-.29-.17,0,.35.16.26.43.65.83,1.21.2.28.44.61.72,1l1,1.24-1-1.24c-.28-.37-.52-.7-.72-1-.4-.56-.67-1-.83-1.21-.33-.52-.25-.51,0-.35l1.05,1.42c.36.47.7.94,1.08,1.39l2.24,2.73L31.55,164c.2.22.4.43.61.64l.62.63L34,166.55A77.25,77.25,0,0,0,45,175.45l1.48,1,.74.49.76.44,1.54.88.76.44.38.22.39.2,3.13,1.57c1,.49,2.12.95,3.18,1.42a88.87,88.87,0,0,0,13.13,4.33l1.67.39c.56.12,1.11.27,1.67.37l3.36.64,3.37.51c.56.09,1.13.14,1.69.21l1.69.19a126.62,126.62,0,0,0,13.46.66c4.47,0,8.91-.25,13.32-.63s8.85-1,13.24-1.76c2.2-.39,4.39-.86,6.57-1.36,1.09-.28,2.18-.52,3.27-.83l1.62-.43,1.62-.48a100.88,100.88,0,0,0,12.74-4.67c.53-.22,1-.46,1.56-.71l1.54-.73,1.53-.78c.51-.26,1-.52,1.52-.8l1.51-.83c.5-.28,1-.58,1.49-.87,1-.57,2-1.2,2.94-1.82A75.31,75.31,0,0,0,172.75,164a68.75,68.75,0,0,0,9.07-10.8,67.87,67.87,0,0,0,6.64-12.56A74.74,74.74,0,0,0,192.37,127a84.72,84.72,0,0,0,1.36-14.12,79.7,79.7,0,0,1-3.17,21.86,68.77,68.77,0,0,1-4,10.41,65.86,65.86,0,0,1-5.68,9.62,69.42,69.42,0,0,1-15.55,15.71,86.29,86.29,0,0,1-19.05,10.48c-13.38,5.35-27.53,7.8-41.51,8.57l-2.64.12-1.33.05-1.32,0-2.65,0-2.66,0-1.33,0-1.33-.06-2.66-.12-2.66-.2-1.34-.11-1.33-.15c-.89-.1-1.78-.19-2.66-.31l-2.66-.39c-.45-.07-.89-.13-1.33-.21l-1.33-.25c-.88-.18-1.77-.33-2.65-.52-1.75-.42-3.52-.78-5.26-1.3l-1.31-.37c-.43-.12-.87-.24-1.3-.39l-2.59-.85c-.86-.27-1.71-.62-2.56-.94L58.6,183c-.43-.16-.85-.32-1.27-.51l-2.5-1.11-.63-.28c-.21-.09-.41-.2-.62-.3l-1.22-.62-1.22-.62-.62-.31-.6-.34-2.4-1.38-.6-.35-.58-.38-1.16-.76c-.77-.51-1.55-1-2.28-1.56l-2.23-1.63c-.73-.56-1.42-1.16-2.14-1.74l-1.06-.88c-.35-.29-.68-.61-1-.92l-2-1.85-1.94-2-1-1-.92-1c-.61-.68-1.23-1.36-1.83-2.05L27,159.39c-.29-.36-.58-.71-.86-1.07l-.81-1.09c-.55-.73-1.1-1.46-1.63-2.2l-1.53-2.26c-.25-.38-.51-.75-.75-1.13l-.72-1.16c-.47-.78-1-1.55-1.42-2.33L18,145.77c-.22-.4-.45-.79-.65-1.19l-.62-1.22-1.22-2.43-1.13-2.48-.56-1.24L13.3,136l-1-2.52-.93-2.56-.46-1.28c-.15-.43-.28-.87-.42-1.3l-.82-2.6c-.25-.87-.48-1.75-.72-2.62s-.49-1.75-.68-2.64l-.62-2.66c-.2-.88-.35-1.78-.52-2.68-.37-1.78-.61-3.59-.88-5.39l-.1-.68-.07-.68L5.91,107l-.15-1.36-.07-.68c0-.23,0-.46-.05-.68-.12-1.83-.27-3.65-.29-5.48a101.44,101.44,0,0,1,.28-11L5.92,85c0-.46.08-.92.15-1.38l.2-1.37c.14-.91.27-1.83.42-2.74l.53-2.73c.09-.46.17-.91.27-1.37l.33-1.35.67-2.71.79-2.68.4-1.34L10.14,66l.93-2.64,1.07-2.61.53-1.3.59-1.27,1.2-2.55A85.76,85.76,0,0,1,27.13,37l1.44-1.6,1.76-1.79,1-1,1-.95c.7-.64,1.39-1.31,2.12-1.95,1.47-1.25,2.93-2.52,4.35-3.57l1-.79c.33-.26.65-.51,1-.73l1.77-1.24A88.17,88.17,0,0,1,70.82,11.6a74.69,74.69,0,0,1,30.66-.51c-1.32.06-1.06.5-.59,1s1.16,1,.78,1.32a2.88,2.88,0,0,1-1.52.2c-.43,0-1,0-1.64-.11s-1.47-.08-2.41-.16l-.73-.06a6.83,6.83,0,0,0-.8-.06l-1.76-.08-1-.06c-.33,0-.68,0-1,0L88.5,13a80.15,80.15,0,0,0-12.09.91l.16,1a60.9,60.9,0,0,1,13.28-.37c.5,0,1,.06,1.48.12l1.43.19,1.38.19c.22,0,.45.05.67.1l.66.13,2.51.51c.81.19,1.57.42,2.31.62l1.08.3c.35.09.69.23,1,.34l1.89.67c.6.21,1.15.46,1.67.7s1,.46,1.47.67l.66.31c.21.11.4.23.59.34.38.21.73.42,1,.61.62.39,1.11.73,1.47,1,.72.6.9,1,.46,1.09a3.4,3.4,0,0,1-1.1,0,18.84,18.84,0,0,1-2-.33l-1.31-.31-1.56-.31-1.81-.39-2.07-.36a73.11,73.11,0,0,0-11-1.09,68.67,68.67,0,0,0-15.48,1.52c-.67.12-1.32.3-2,.46l-2,.5-2,.6c-.66.2-1.33.39-2,.64l-2,.69-.5.18-.49.2-1,.4-1,.4c-.33.13-.66.26-1,.42l-2,.89c-.32.16-.65.29-1,.46l-1,.5-1.93,1L53.8,29.55l-.95.55-.93.58-1.86,1.19c-.62.41-1.21.85-1.82,1.27-1.23.82-2.39,1.77-3.58,2.67-.3.23-.59.47-.87.71l-.86.73-.86.73-.43.37-.42.38-1.66,1.54-.42.39-.4.4-.8.82a76.66,76.66,0,0,0-6,6.9l-1.38,1.86c-.22.31-.47.62-.68.94l-.64,1c-.43.65-.87,1.29-1.29,1.94l-1.2,2-.6,1-.54,1-1.11,2.06-1,2.11L23,63.74c-.17.36-.3.72-.46,1.08A75.12,75.12,0,0,0,17.37,83c-.11.79-.24,1.57-.35,2.36l-.24,2.37-.13,1.19-.07,1.19-.14,2.38A89.1,89.1,0,0,0,16.6,102a87.82,87.82,0,0,0,3.25,18.62,94.81,94.81,0,0,0,4.59,12.81,87.55,87.55,0,0,0,6.42,11.92,73.22,73.22,0,0,0,18.06,19.48c.44.33.88.66,1.33,1l1.38.89,1.37.9,1.42.82,1.42.82,1.48.75,1.48.75c.49.25,1,.46,1.51.69a75.33,75.33,0,0,0,12.63,4.35,105.36,105.36,0,0,0,27.12,2.88c3.18-.05,6.39-.17,9.62-.44s6.43-.6,9.64-1.09a109.72,109.72,0,0,0,18.92-4.53,80.82,80.82,0,0,0,17.49-8.29,61,61,0,0,0,14.34-12.59,56.3,56.3,0,0,0,5.41-7.84,57,57,0,0,0,4-8.64,67.11,67.11,0,0,0,3.83-18.78,83.17,83.17,0,0,0-1.08-19.24A91.43,91.43,0,0,0,177,78.82c-.41-1.07-.92-2.16-1.43-3.3s-1.08-2.3-1.72-3.47c-.3-.59-.61-1.18-.95-1.77s-.67-1.2-1-1.79l-1.09-1.79-1.2-1.79a101.51,101.51,0,0,0-11-13.73,133.66,133.66,0,0,0-11.8-10.74l-2.6-2.08-2.34-1.79c-.73-.55-1.38-1.08-2-1.53s-1.15-.86-1.62-1.23c-.67-.5-1.26-1-1.77-1.36s-1-.73-1.35-1a11.88,11.88,0,0,1-1.51-1.35c-.53-.62-.23-.76.37-.73a137.45,137.45,0,0,1,18.73,13.81,108.62,108.62,0,0,1,15.53,17.06l.86,1.15c.29.39.53.8.8,1.19L171.5,65c.55.79,1,1.61,1.52,2.43l.37.61.35.62.7,1.25a86.29,86.29,0,0,1,4.84,10.36,90.86,90.86,0,0,1,5.54,22c.24,2.31.45,4.62.5,6.94.06,1.15,0,2.31,0,3.47,0,.57,0,1.15,0,1.73s0,1.15-.08,1.73l-.11,1.73c0,.57-.11,1.14-.16,1.72-.1,1.15-.28,2.28-.43,3.43-.08.56-.19,1.13-.28,1.7l-.15.85c-.05.28-.11.56-.17.84l-.35,1.68-.42,1.67-.2.84-.24.82-.49,1.65-.54,1.62c-.09.27-.18.54-.28.81l-.3.8a58,58,0,0,1-2.76,6.24c-.54,1-1.06,2-1.66,3l-.44.73c-.14.24-.29.49-.45.72l-.93,1.43a59.88,59.88,0,0,1-4.14,5.4l-.56.64-.57.63-1.16,1.25c-.82.79-1.6,1.61-2.45,2.37-.43.37-.83.78-1.27,1.14l-1.3,1.1c-.43.37-.89.71-1.34,1.07l-.67.52c-.22.18-.46.34-.69.51l-1.38,1-1.42,1c-.46.33-1,.63-1.44.93s-1,.62-1.46.9c-2,1.18-4,2.24-6.05,3.25a101,101,0,0,1-26.41,8.16c1.12-.18,2.23-.4,3.35-.61s2.23-.44,3.34-.71c2.22-.49,4.42-1.09,6.6-1.73s4.34-1.38,6.48-2.17,4.23-1.68,6.29-2.66,4.08-2,6-3.18l.74-.43.72-.45,1.45-.91c.93-.64,1.89-1.26,2.8-1.94s1.82-1.37,2.71-2.07c.45-.35.87-.73,1.31-1.1l.65-.55.63-.57,1.26-1.16,1.21-1.2c.41-.39.79-.82,1.18-1.23s.78-.83,1.15-1.26l1.11-1.3c.37-.43.7-.89,1.06-1.34.72-.88,1.36-1.83,2-2.75.33-.47.63-1,.95-1.43l.47-.72c.15-.24.29-.49.44-.74l.87-1.47.81-1.51.41-.76.37-.78c.24-.51.5-1,.74-1.55.44-1.06.93-2.1,1.31-3.19a59.47,59.47,0,0,0,2.11-6.59l.42-1.69c.14-.56.24-1.14.36-1.7.26-1.14.42-2.29.63-3.44.08-.57.15-1.15.23-1.73l.11-.87c0-.29.06-.58.09-.87l.17-1.75.11-1.75.05-.88,0-.88,0-1.76v-1.76c0-.29,0-.59,0-.88l0-.89c-.06-2.35-.27-4.7-.53-7a90.94,90.94,0,0,0-5.41-22A89,89,0,0,0,174.68,70c-.92-1.66-1.84-3.3-2.88-4.89l-1.56-2.38-.78-1.2-.85-1.15a108.23,108.23,0,0,0-15.21-17l-.53-.49-.54-.46-1.09-.94-2.18-1.87-2.25-1.79c-.75-.59-1.49-1.21-2.27-1.76l-2.32-1.7c-.38-.29-.76-.58-1.16-.85l-1.19-.81L137.49,31c-.8-.53-1.62-1-2.43-1.55,1.22.17,2.43.31,1.08-1.1l-1.34-.83c-.81-.53-2-1.2-3.28-2l-2-1.17-2.11-1.14-2-1.08c-.64-.35-1.25-.64-1.78-.92l-2.87-1.71c-.88-.51-1.69-1-2.42-1.42s-1.38-.85-2-1.21-1.11-.68-1.55-1c-1.79-1.18-2.48-1.89-2.33-2.23s1.12-.3,2.66,0c.76.15,1.67.36,2.68.64s2.11.63,3.28,1c.59.22,1.2.42,1.83.67l1.92.75,2,.8C127.59,17.86,128.29,18.18,129,18.49Z"/><path d="M148.69,89.81l-1.08-.94a62.15,62.15,0,0,0-11.16-7.09c-4-2-8.28-3.86-12.81-5.75-.79-.35-1.6-.69-2.42-1s-1.69-.59-2.55-.88-1.74-.53-2.62-.78-1.78-.49-2.68-.68c-3.59-.86-7.25-1.41-10.65-1.89,4,.74,8,1.62,12,2.71a101.9,101.9,0,0,1,11.74,4A71.31,71.31,0,0,1,147,89.81a14.7,14.7,0,0,1-2.72-.38,9.87,9.87,0,0,1-2.78-1.08,89.22,89.22,0,0,0-13.37-7.09l.53-1.36c-1.73-.54-3.45-1.05-5.13-1.61l-2.53-.8c-.42-.15-.84-.28-1.27-.4l-1.26-.4c-3.35-1-6.7-2.08-10.11-2.91a74,74,0,0,0-10.4-1.87c-.88-.1-1.77-.16-2.66-.2s-1.78-.1-2.68-.08-1.79,0-2.69.06-1.81.14-2.71.24c.51.2.2.49.09.73h0c-.1.21,0,.37.85.39-.89,0-1-.18-.85-.39a94,94,0,0,1,20.64,2l2.5.55,2.49.64c.83.2,1.65.46,2.48.7s1.65.47,2.46.75A97.5,97.5,0,0,1,127.58,81l-.94-.4-1-.37-1.9-.73c-.63-.25-1.28-.45-1.92-.68s-1.28-.45-1.92-.66c-2.58-.8-5.18-1.56-7.81-2.16l-2-.45-2-.39c-1.32-.28-2.66-.48-4-.7-.67-.12-1.34-.19-2-.29l-2-.26-2-.2c-.67-.07-1.34-.15-2-.19a119,119,0,0,0-16.25-.12,124.05,124.05,0,0,0-16.36,2.15c-.47.08-1.16.23-1.86.39l-1.85.41A30.11,30.11,0,0,0,48.46,78.2c.15-1-1-2.08-1.23-3.11a1.45,1.45,0,0,1,.63-1.55,9.85,9.85,0,0,1,3.77-1.4l-.42-1.4a26.49,26.49,0,0,1-2.92.06c-.46,0-.9-.06-1.31-.11s-.81-.09-1.19-.16a6.45,6.45,0,0,1-3.33-1.43,1.94,1.94,0,0,1-.37-2.42,5,5,0,0,1,1.23-1.47,11.59,11.59,0,0,1,2.33-1.56,57.75,57.75,0,0,1,15.94-4.78c5.93-1,12.17-1.59,18.14-2.22a98.76,98.76,0,0,1,13.1-.37,68.5,68.5,0,0,1,13,1.71c5.84,1.43,11.89,3,17.8,4.94a80.41,80.41,0,0,1,16.73,7.59c.46.27,1,.54,1.55.8s1.14.57,1.76.85l1.86.85c.63.29,1.24.6,1.85.89l1.74.89c.54.31,1,.61,1.5.91a6.18,6.18,0,0,1,1.91,1.66c1,1.26.67,1.95,0,2.57-1.44-1-2.94-1.83-4.43-2.72-.74-.44-1.5-.84-2.26-1.27l-1.13-.62c-.38-.21-.77-.4-1.15-.6l-2.3-1.19-2.32-1.11-1.16-.56-1.18-.52-2.34-1c-3.82-1.77-7.72-3.34-11.69-4.78L121.08,65l-.75-.27-.75-.24-3-1-3-.94c-1-.31-2-.58-3.06-.88,4,1.26,8,2.58,11.93,4s7.94,2.94,11.87,4.64l2.31,1.11,1.15.55,1.13.59,2.27,1.18L143.35,75c.37.21.75.41,1.11.63l1.1.66c.73.44,1.46.87,2.18,1.32,1.42.94,2.86,1.84,4.24,2.83a2.73,2.73,0,0,0-1.25,1.89l1,.61.86.53.77.5c1.21,1.91,1.2,3.23.58,4.14a4.81,4.81,0,0,1-3.18,1.63C150.12,89.75,149.42,89.8,148.69,89.81Z"/><path d="M136.53,113.1c-.3-.29-.61-.56-.91-.84a49.87,49.87,0,0,0-9.55-6.2c-3.45-1.78-7.12-3.36-11-5-.67-.32-1.37-.62-2.08-.91s-1.44-.53-2.19-.78-1.5-.47-2.26-.68-1.53-.43-2.31-.59c-3.1-.74-6.25-1.21-9.19-1.62a102.15,102.15,0,0,1,20.47,5.86A58.13,58.13,0,0,1,135,113.2a11.71,11.71,0,0,1-2.42-.18,7.45,7.45,0,0,1-2.41-.87A74.28,74.28,0,0,0,118.74,106l.53-1.35c-1.49-.46-3-.88-4.42-1.36-.73-.22-1.45-.45-2.17-.69s-1.45-.45-2.17-.69c-2.88-.91-5.76-1.83-8.69-2.57a59.42,59.42,0,0,0-8.94-1.65c-.76-.1-1.52-.14-2.29-.18s-1.53-.07-2.3,0-1.55,0-2.32.08-1.56.15-2.34.24c.44.21.18.5.08.74h0c-.08.2,0,.37.73.38-.76,0-.81-.18-.73-.38a78.36,78.36,0,0,1,17.74,1.73,79.46,79.46,0,0,1,8.52,2.31,82.26,82.26,0,0,1,8.32,3.25l-.8-.35-.82-.32-1.62-.63c-.54-.22-1.1-.4-1.65-.59s-1.09-.39-1.65-.57c-2.21-.7-4.44-1.35-6.7-1.87l-1.69-.39-1.71-.34c-1.13-.24-2.28-.4-3.42-.59-.57-.11-1.15-.17-1.72-.25l-1.72-.22-1.73-.17c-.58-.06-1.15-.13-1.73-.16a103,103,0,0,0-14-.09,111.16,111.16,0,0,0-14,1.86c-.4.07-1,.21-1.59.34l-1.59.35a23.23,23.23,0,0,0-9.83,1.36c.09-1-1-2.09-1.21-3.12a1.39,1.39,0,0,1,.49-1.5,7.42,7.42,0,0,1,3.26-1.23l-.43-1.41a18.07,18.07,0,0,1-2.57,0c-.4,0-.78-.09-1.15-.15s-.72-.13-1.06-.21a6.19,6.19,0,0,1-3-1.55,2.39,2.39,0,0,1-.58-1.11,2.1,2.1,0,0,1,.15-1.29,4.4,4.4,0,0,1,1-1.4,9.24,9.24,0,0,1,2-1.45,47.13,47.13,0,0,1,13.95-4.26c5.2-.89,10.66-1.36,15.89-2a83.16,83.16,0,0,1,11.49-.37A55.87,55.87,0,0,1,100,83.64c5.11,1.32,10.4,2.68,15.57,4.44a66.28,66.28,0,0,1,14.57,6.79c.41.24.87.47,1.36.7s1,.5,1.53.74l1.64.74c.55.25,1.09.51,1.62.77l1.52.77c.48.27.92.54,1.31.8a4.78,4.78,0,0,1,1.64,1.5,1.61,1.61,0,0,1-.13,2.48,110.33,110.33,0,0,0-15.92-8.44c-3.31-1.56-6.71-3-10.16-4.25l-1.3-.48-.65-.24-.66-.23-2.62-.89L106.64,88c-.88-.28-1.78-.53-2.67-.8q5.2,1.73,10.39,3.63c3.45,1.27,6.91,2.62,10.32,4.11l2,1,1,.49,1,.52,2,1,1.94,1.11,1,.55.95.58c.64.39,1.27.78,1.89,1.18,1.24.82,2.49,1.61,3.68,2.49a3.06,3.06,0,0,0-1.24,1.89l.86.53.74.46.67.44c1,1.76.9,3,.27,3.93a5.07,5.07,0,0,1-3,1.76C137.82,113,137.19,113,136.53,113.1Z"/><path d="M128.69,137.36l-.72-.71a36.88,36.88,0,0,0-7.74-5.22c-2.82-1.48-5.81-2.79-9-4.23a32.13,32.13,0,0,0-7.23-2.5c-2.55-.61-5.15-1-7.56-1.32a84.46,84.46,0,0,1,16.77,5,43.82,43.82,0,0,1,14.13,9.26,8.43,8.43,0,0,1-2.07,0,4.92,4.92,0,0,1-2-.63,57.61,57.61,0,0,0-9.23-5.15l.53-1.35c-1.22-.35-2.44-.68-3.62-1.07-.6-.18-1.19-.36-1.78-.56s-1.19-.37-1.77-.57c-2.35-.77-4.69-1.55-7.08-2.19A45,45,0,0,0,93,124.68a27.51,27.51,0,0,0-7.57.19c.36.2.14.5.07.73h0c-.07.21,0,.37.59.38-.62,0-.66-.17-.59-.38A61.43,61.43,0,0,1,100,127a65.39,65.39,0,0,1,13.7,4.67,62.76,62.76,0,0,0-10.78-3.57,70.55,70.55,0,0,0-11.19-1.73,84.57,84.57,0,0,0-11.37,0,89.66,89.66,0,0,0-11.42,1.54c-.66.11-1.94.42-2.59.56a16.42,16.42,0,0,0-8.09.84c0-1-.92-2.1-1.19-3.12a1.39,1.39,0,0,1,.33-1.45,5.17,5.17,0,0,1,2.68-1l-.43-1.41a14.92,14.92,0,0,1-2.17-.17c-.34-.06-.67-.13-1-.22a8.52,8.52,0,0,1-.9-.26,6,6,0,0,1-2.65-1.67,2.79,2.79,0,0,1-.56-1.13,2.24,2.24,0,0,1,.06-1.25,3.7,3.7,0,0,1,.82-1.32,6.62,6.62,0,0,1,1.65-1.32,36,36,0,0,1,11.72-3.69c4.38-.74,9-1.11,13.37-1.66a66.45,66.45,0,0,1,9.67-.39,43.51,43.51,0,0,1,9.56,1.38c4.29,1.19,8.73,2.36,13.06,3.88a52.5,52.5,0,0,1,12.17,5.88,11.74,11.74,0,0,0,1.13.61c.41.2.84.41,1.29.61l1.37.61,1.37.64c.44.21.88.43,1.28.64s.77.45,1.1.67a3.55,3.55,0,0,1,1.33,1.33,1.69,1.69,0,0,1-.29,2.38,93.17,93.17,0,0,0-13.27-7.11c-2.76-1.33-5.59-2.54-8.46-3.65s-5.81-2.14-8.79-3.07c2.89,1,5.77,2.11,8.65,3.22s5.75,2.25,8.6,3.5l1.67.84.83.42.82.45,1.64.89,1.61.94.8.47.78.5c.53.33,1,.65,1.57,1,1,.7,2.06,1.38,3,2.12a3.71,3.71,0,0,0-1.22,1.9l.71.44.62.38.55.37a3.51,3.51,0,0,1-.08,3.69,5.6,5.6,0,0,1-2.77,1.91C129.83,137.11,129.27,137.25,128.69,137.36Z"/></svg>