<svg id="Layer_1" data-name="Layer 1" xmlns="http://www.w3.org/2000/svg" viewBox="0 0 200 200"><path d="M145.36,142.69l-4.62-.42c-3.55-.31-7.1-.56-10.65-.81s-7.12-.47-10.69-.65l-5.38-.28-5.4-.23c-3.6-.16-7.23-.26-10.88-.38-14.6-.4-29.61-.54-45.26.16l-2.07.08h-.28l-.39,0-.78.06-1.55.12-6.21.48-1.56.13-.39,0H39.1s0,0,0,0v-.2l.06-.82c.09-1.09.17-2.17.25-3.27s.17-2.17.25-3.26.18-2.14.26-3.22c.5-5.84,1-11.78,1.58-17.71.28-3,.59-5.94.88-8.89s.62-5.9,1-8.82.71-5.81,1.08-8.66c.19-1.43.41-2.85.61-4.26l.3-2.1c.11-.7.23-1.39.34-2.08-2.21,13.1-3.67,26.38-5,39.74-.16,1.66-.31,3.33-.47,5s-.29,3.34-.44,5L39.6,130l-.29,3.71L39,137.59l-.14,2-.07,1,0,.49,0,.25v.06s0,.05,0,0h.12l7.54-.64,3.79-.32,2.47-.12,5-.25c.83-.05,1.66-.06,2.48-.08l2.49-.06c13.23-.33,26.47,0,39.52.52S128,141.86,140.58,143a178.22,178.22,0,0,1-18.27.1c-17-.94-33.79-1.58-50.36-1.46v-1l-4.41.12-4.38.19-4.36.18c-1.45.07-2.89.17-4.33.26l-4.41.27-7.47.66-3.72.32-.92.08c-.28,0-.77.21-.6-.27l.14-1.93c.18-2.57.37-5.14.55-7.71.09-1.11.17-2.21.26-3.32l.19-2.17.39-4.34c.26-2.88.55-5.77.84-8.65.58-5.75,1.25-11.49,2-17.23s1.52-11.49,2.43-17.25c.5-2.88.95-5.76,1.54-8.66l.45-2.31.81-3.57c.27-1.19.53-2.38.8-3.57l.1-.44,0-.06s0-.05,0,0h.34l.92,0,1.83,0,10.71-.15,8.76-.17q8.79-.2,17.69-.53c-1.69-.11-.69-.32-.34-.48h0c.32-.14.12-.25-2.84-.22,3,0,3.16.08,2.84.22l-17.41.27-19.41.25-2,0H47.22s0,0,0,0l0,.12c-.29,1.26-.57,2.53-.85,3.79s-.57,2.53-.85,3.79l-.11.47-.05.23,0,.2-.11.58-.2,1.08-.41,2.15-.21,1.07L44.15,75c-.24,1.43-.48,2.85-.71,4.28q-1.3,8.52-2.32,17c-.67,5.66-1.3,11.32-1.85,17l-.42,4.25c-.13,1.42-.26,2.84-.4,4.26s-.25,2.85-.38,4.27-.25,2.94-.38,4.42c-.22,2.65-.41,5.3-.6,8-.1,1.33-.19,2.66-.29,4l0,.5,0,.25v.19s0,0,0,0l.95-.08,1.91-.16,7.69-.64,1.93-.16,1-.08h.32l.27,0,2.11-.1c2.83-.13,5.65-.3,8.52-.34s5.72-.16,8.62-.14c-1.12,0-2.25,0-3.37,0l-3.34.09-3.35.1c-.55,0-1.11,0-1.67.05l-1.66.09-3.32.17-1.65.09-.83,0-.42,0h-.1l-.19,0-.39,0-12.19,1.05-.76.07-.2,0s0-.06,0-.08v-.1l0-.4.11-1.59.22-3.17c.16-2.11.31-4.23.46-6.34l.33-4.17.28-3.38q.57-6.73,1.23-13.46c.87-9,1.86-17.93,3.12-26.91.33-2.25.63-4.49,1-6.75L44,73.83l.64-3.4.16-.85.08-.42.06-.3c0-.1.05-.24.08-.36l.69-3.09.69-3.09.34-1.54.09-.39,0-.19,0-.1s0-.05.07-.05h.79l10.53-.14,54.05-.74,27.35-.37,7.72-.1,6.62-.08h1.45s0,0,0,.06l0,.1.28,1.63.55,3.27.56,3.27.27,1.6.12.9.48,3.56c.09.6.14,1.19.21,1.79l.18,1.79.18,1.79c.06.6.1,1.19.14,1.79.32,3.27.56,9.75.63,13-.22,6.44-.48,12.76-.44,19a143.82,143.82,0,0,0,1.21,18.5c-.82-1.45-1.42,1-2.16.68-.19-.07-.39-.31-.6-.84a7.79,7.79,0,0,1-.33-1c-.06-.2-.12-.43-.18-.68l-.16-.82a81.41,81.41,0,0,1-1.06-12.59l-1,0V120c0,1.46,0,2.85,0,4.18.06,2.65,0,5,.08,7.08,0,1,0,2,0,2.85s0,1.65,0,2.34a14.29,14.29,0,0,1-.33,3.09c-.17.63-.41.88-.72.7a1.81,1.81,0,0,1-.51-.6,11.5,11.5,0,0,1-.6-1.31q-.33-.84-.69-2c-.25-.81-.52-1.74-.75-2.81s-.49-2.27-.75-3.61-.45-2.82-.68-4.45A213.29,213.29,0,0,1,148.05,102c-.15-8.12-.22-16.45-1.08-24.81l-.16-1.57-.08-.79-.1-.78-.41-3.15-.1-.76v0l0-.1v-.11s0-.08,0-.07h-.75l-1.67,0-6.68.06c-8.91.1-17.83.23-26.54.46-12.68.27-25.37.54-38,.72l-9.51.11-4.76,0-2.13,0s0,0,0,0h-.08l0,.11-.45,2.26-.46,2.25-.41,2.29c-.28,1.53-.57,3-.81,4.59-1.44,8.46-2.57,17.24-3.57,26.14-.25,2.22-.47,4.46-.71,6.7l-.66,6.74q-.31,3.38-.61,6.76L48,130.79v.28l0,.13-.07.53,0,.27v.07s.06,0,.09,0h.18l.77,0,4.63-.22c4.62-.27,9.2-.31,13.76-.4s9.07,0,13.55.11l3.34.07,1.67,0,1.66.06,6.61.26c3.18.12,7,.22,10.94.3l6.07.15,3,.08,3,.09,5.77.21c1.83.08,3.57.17,5.16.26,3.18.18,5.75.43,7.33.69,4.54.59,4.69,1.14,4,1.67q-15.63-.94-31.22-1.49c-10.39-.36-20.75-.6-31.07-.61-3.17,0-6.33,0-9.5,0s-6.35.13-9.52.19l-4.77.22-2.39.11-1.19,0-.63.05-2.42.15-.59,0h-.28v0l0-.28.11-1.12.12-1.09,0-.54,0-.28,0-.59.45-4.69.46-4.68.5-4.69q1-9.36,2.25-18.67-1.29,9.09-2.33,18.37c-.16,1.54-.33,3.09-.5,4.64s-.31,3.11-.47,4.66l-.45,4.68-.1,1.07-.06.56-.11,1.14-.12,1.16,0,.3,0,.15v0s0,0,0,0h.08l.61,0,2.52-.18.64,0h.16l.29,0,.6,0,2.41-.11,4.81-.24,9.63-.24c3.22,0,6.44-.06,9.66-.07,10.3.07,20.57.39,30.84.81s20.53,1,30.77,1.72c-.78.46-1.52.93-.3,1.49,0,0,6.33.36,9.49.56,6.3,1,8.61,1.93,8.56,2.66s-2.47,1.29-5.66,1.7C149.21,142.37,147.39,142.54,145.36,142.69Z"/><path d="M114.29,98.75l-1.19-.63c-3.7-1.84-7.49-3.44-11.41-5l-6-2.39-1.52-.62-.77-.31L93,89.62l-.18-.07-.08,0-1.43-.67c-.41-.23-.85-.43-1.31-.64l-.7-.3L89,87.76l-.18-.07-.09,0,0,0h0v0c0,1.15.12,2.46.23,3.71l.24,2.79c.1,1.19.2,2.36.29,3.51l-.18-3.6c0-.6-.07-1.21-.1-1.81l0-.88c0-1.07,0-2.15-.08-3.24,0,0,0,0,0,0l0,0,.11,0,.22.09.44.16.85.34,1.61.68.38.17.1,0h0l.06,0,.11,0,.46.18,1.82.74,3.62,1.52c4.79,2.07,9.47,4.26,13.9,6.62a14.49,14.49,0,0,1-5.3-1q-6.77-3-13.46-5.63l.34-.91L93,90.89l-.34-.11-.17,0-.07,0h0l-.15,0-.59-.16c-.38-.11-.77-.28-1.2-.45,0,.46-.08,1-.13,1.57l0,.48.07,1.73c0,1.2.11,2.39.18,3.59.14,2.4.31,4.79.58,7.2l.1.9a.21.21,0,0,1,0,.06v.11l0,.13c0,.18.08.35.13.51a2.59,2.59,0,0,0,.34.76,2,2,0,0,1,.43-.58v0a.61.61,0,0,0,.21-.38.61.61,0,0,1-.21.38c0-.17-.08-.37-.11-.57l0-.31v-.26l-.09-.89c-.23-2.4-.43-4.78-.61-7.16l-.25-3.57-.1-1.7v-.29a7.71,7.71,0,0,1,.08-1,8.19,8.19,0,0,1,.74.41l.28.19,0,0,0,0v0h0l.08,0,1.24.51-1.24-.49-.08,0h0l0,0-.06,0a2.8,2.8,0,0,0-.25-.14,4.94,4.94,0,0,0-.57-.26c0,.27,0,.59,0,.9l.24,3.16.34,4,.36,4,.2,2,0,.35v.06l0,.11a7.61,7.61,0,0,0,.15.75l.4-.29.19-.14.08-.06,0,0h0l.06,0,8.23-5.31,3.07-2a52.73,52.73,0,0,0,9.71-5.17c-.09,1.52,4.32,1.55-2.07,5.17l.53.82c3.41-1.5,6.15-1.94,7.36-1.38s.86,2.11-2,4.56a105.29,105.29,0,0,1-11.54,8c-2.15,1.34-4.35,2.7-6.53,4.08-1.82,1.18-3.65,2.35-5.46,3.51-2.09,1.36-4.17,2.72-6.27,4.12l-5,3.29L82.87,121l-.61-4.53c-.2-1.53-.4-3.06-.59-4.61l-.49-4.72-.08-.93,0-.6-.1-1.19c-.07-.8-.12-1.6-.16-2.4-.09-1.6-.15-3.19-.17-4.79q0-1.65-.06-3.33l0-.84v-.22l0-.38,0-.8-.16-3.18c-.21-4.13-.41-8.31-.62-12.5l4,1.38,3.89,1.37c1.28.45,2.58.94,3.85,1.4s2.54.94,3.79,1.44l.47.18.28.12.51.21,1,.44,2,.89c1.34.61,2.67,1.22,4,1.86,3.36,1.53,9.64,3.17,11.09,4.53,1.1.81,1,1.31.56,1.78-5.6-2.28-11.21-4.47-16.77-6.65l-3-1.23-1-.38-1.12-.43-2.25-.86-2.29-.87-2.32-.86-2.36-.87L82.88,79l-.6-.22L82,78.7l-.15,0-.08,0s0,0,0,0l.45,14c-.09-4.91-.18-9.44-.32-13.87h.06l.07,0,.15.06.29.11.59.22,1.18.43,2.31.84,2.27.83,2.26.85,2.24.83,2.08.8,3,1.18q8.27,3.42,16.42,7c-.38.38-.77.79-.61,1.37l2.57,1c3,2.49,1.47,3.74-.68,4.2C115.53,98.63,114.94,98.7,114.29,98.75Z"/><path d="M128.91,18.75c1.05.6,2.11,1.19,3.15,1.81l3.09,1.88A166.77,166.77,0,0,1,149,31.9,137.1,137.1,0,0,1,161.61,43a108.73,108.73,0,0,1,11.1,12.89c.83,1.15,1.71,2.28,2.47,3.49s1.59,2.39,2.36,3.6c1.52,2.46,2.9,5,4.19,7.6s2.44,5.28,3.49,8c.54,1.35,1,2.74,1.48,4.12s.9,2.78,1.29,4.2c.8,2.83,1.49,5.7,2,8.62s1,5.86,1.22,8.85.37,6,.34,9a85.27,85.27,0,0,1-.65,9.13l-.15,1.14c-.05.39-.11.77-.18,1.15l-.39,2.28-.47,2.28c-.16.76-.37,1.51-.55,2.27a71.08,71.08,0,0,1-3,9A65.57,65.57,0,0,1,170.79,163a73.7,73.7,0,0,1-11,8.6,85.64,85.64,0,0,1-12.39,6.53,114.89,114.89,0,0,1-26.55,7.58q-3.36.56-6.72.94c-1.11.12-2.23.25-3.33.34l-1.66.15-.83.08-.83,0c-4.42.34-8.81.47-13.12.39a145.49,145.49,0,0,0,15.34-.48c2.55-.19,5.11-.47,7.66-.8s5.11-.76,7.65-1.24,5.07-1.06,7.59-1.71,5-1.39,7.5-2.21,4.93-1.77,7.35-2.79,4.8-2.17,7.13-3.4,4.61-2.62,6.82-4.08a72.47,72.47,0,0,0,6.39-4.8,66.53,66.53,0,0,0,11-11.7l1.16-1.64c.38-.56.74-1.13,1.11-1.69l.54-.85.51-.86c.34-.58.69-1.15,1-1.75a68.07,68.07,0,0,0,3.46-7.27,74,74,0,0,0,2.54-7.62c.18-.64.32-1.29.49-1.94l.23-1,.21-1c.13-.65.27-1.3.4-2l.33-2a89.26,89.26,0,0,0-.93-31.49c-.29-1.28-.55-2.56-.88-3.83-.16-.63-.3-1.27-.48-1.9l-.53-1.89c-.75-2.51-1.55-5-2.49-7.43l-.34-.92-.37-.91L184,74.76c-.53-1.19-1-2.4-1.61-3.57-1.11-2.36-2.34-4.66-3.65-6.92l-1-1.69L176.65,61c-.71-1.08-1.39-2.18-2.12-3.24-1.52-2.09-3-4.22-4.64-6.19s-3.3-3.93-5-5.86c-.87-.93-1.77-1.84-2.65-2.77-.45-.45-.88-.92-1.34-1.37l-1.38-1.31-1.38-1.32c-.46-.43-.92-.88-1.4-1.29l-2.86-2.5c-.47-.43-1-.82-1.45-1.22L151,32.69,149.5,31.5c-.49-.39-1-.76-1.5-1.14l-3-2.25L141.92,26c-1-.73-2.06-1.39-3.1-2.08l-1.56-1-.78-.51-.8-.48c.91.43,1.81.92,2.74,1.42s1.88,1,2.85,1.55l2.91,1.74,1.5.91,1.5,1c1,.68,2,1.35,3.07,2.08s2.05,1.51,3.1,2.3l.79.6c.26.2.51.42.77.63l1.57,1.29,1.59,1.33c.53.45,1,.94,1.56,1.42a116.86,116.86,0,0,1,13.78,15.12l1.51,2.07.75,1c.26.34.51.69.74,1l2.8,4.28a91.86,91.86,0,0,1,4.9,9A98.23,98.23,0,0,1,193.59,110l-1,0A83.91,83.91,0,0,1,192,124.3a74,74,0,0,1-3.29,13.91,66.84,66.84,0,0,1-6.13,12.93l-1,1.51-.49.75-.51.73-1,1.45c-.36.48-.73.95-1.09,1.42-.71.95-1.5,1.84-2.26,2.75-.38.45-.8.88-1.19,1.32s-.79.88-1.22,1.29A70.4,70.4,0,0,1,163,171.43c-1.92,1.34-3.91,2.54-5.92,3.7l-1.52.83-.77.41-.77.4-1.55.78-1.56.73a99.22,99.22,0,0,1-12.83,4.89,124.58,124.58,0,0,1-13.21,3.22c-4.44.81-8.92,1.43-13.39,1.82s-9,.64-13.47.66A112.66,112.66,0,0,1,70.88,186a87.27,87.27,0,0,1-13.23-4.3l-3.21-1.41-3.15-1.57-.39-.2-.39-.22-.77-.44-1.54-.88-.77-.44-.75-.48-1.49-1a78.06,78.06,0,0,1-11-8.92,85.27,85.27,0,0,1-9.37-10.71c1.51,2.25.39,1.08-.07.72l-.33-.44.33.44c-.21-.17-.29-.17,0,.35.16.26.43.65.83,1.21.21.28.44.61.72,1l1,1.24-1-1.24c-.28-.37-.51-.7-.72-1-.4-.56-.67-.95-.83-1.21-.33-.52-.25-.52,0-.35l1.05,1.41c.36.47.7,1,1.08,1.4l2.24,2.73,2.37,2.62c.19.22.39.43.6.64l.62.62,1.25,1.25a75.89,75.89,0,0,0,10.93,8.9l1.48,1,.74.48.77.45,1.53.88.76.44.39.22.39.2L54,180.91c1,.49,2.12,1,3.18,1.42a87.67,87.67,0,0,0,13.13,4.32L72,187c.56.13,1.11.28,1.68.37l3.36.64,3.36.51c.57.1,1.13.15,1.69.21l1.69.2a129.31,129.31,0,0,0,13.46.66c4.47,0,8.91-.25,13.32-.64s8.85-1,13.24-1.75c2.2-.39,4.39-.87,6.57-1.37,1.09-.27,2.18-.52,3.27-.82l1.62-.44,1.62-.47a102.46,102.46,0,0,0,12.74-4.67c.53-.22,1-.47,1.56-.71l1.55-.73,1.52-.78c.52-.26,1-.52,1.52-.8l1.51-.83c.5-.28,1-.58,1.49-.87,1-.57,2-1.21,2.94-1.82a76,76,0,0,0,10.92-8.67,69.12,69.12,0,0,0,9.07-10.8,67.59,67.59,0,0,0,6.64-12.56,74,74,0,0,0,3.91-13.66,84.72,84.72,0,0,0,1.36-14.12A80.07,80.07,0,0,1,190.46,135a69.89,69.89,0,0,1-4,10.41,65.24,65.24,0,0,1-5.68,9.61,69.46,69.46,0,0,1-15.55,15.72,86.47,86.47,0,0,1-19.05,10.48c-13.38,5.35-27.53,7.8-41.51,8.57l-2.64.11-1.32.06-1.33,0-2.65,0-2.66,0-1.32,0-1.33-.06-2.67-.12-2.66-.21-1.34-.1-1.33-.15L80.75,189l-2.66-.4c-.45-.07-.89-.12-1.33-.21l-1.33-.25c-.88-.17-1.77-.32-2.65-.51-1.75-.42-3.52-.79-5.26-1.31l-1.3-.36c-.44-.13-.88-.24-1.31-.39l-2.59-.85c-.86-.27-1.71-.62-2.56-.94l-1.27-.49c-.43-.16-.85-.33-1.27-.52l-2.5-1.1-.63-.28-.61-.31-1.23-.61L51,179.85l-.62-.31-.6-.34-2.4-1.39c-.2-.11-.4-.22-.6-.35l-.58-.38-1.16-.75c-.76-.51-1.55-1-2.28-1.56l-2.22-1.64c-.73-.56-1.43-1.15-2.14-1.73l-1.07-.88c-.35-.3-.68-.61-1-.92l-2-1.85-1.94-1.95-1-1-.92-1-1.83-2-1.73-2.12c-.28-.35-.58-.7-.86-1.06l-.81-1.1c-.54-.73-1.1-1.45-1.63-2.19L22.1,153c-.25-.38-.51-.75-.75-1.14l-.72-1.16c-.47-.77-1-1.54-1.42-2.32L17.88,146c-.21-.4-.44-.79-.65-1.2l-.62-1.21-1.22-2.43-1.13-2.48-.56-1.24-.51-1.26-1-2.52-.93-2.56-.46-1.28c-.14-.43-.28-.87-.41-1.3L9.55,126c-.26-.87-.49-1.75-.73-2.62s-.49-1.75-.68-2.64L7.53,118c-.21-.89-.35-1.79-.53-2.68-.37-1.78-.61-3.59-.88-5.39l-.1-.68L6,108.6l-.15-1.36-.15-1.36-.07-.68c0-.23,0-.46,0-.69-.12-1.82-.27-3.64-.29-5.48a98.8,98.8,0,0,1,.29-11l.28-2.75c.05-.46.09-.92.15-1.38l.2-1.37c.14-.91.27-1.83.42-2.74l.53-2.73c.09-.46.17-.91.27-1.37l.33-1.35.67-2.71.79-2.68.4-1.35L10,66.27,11,63.62,12,61l.53-1.3.59-1.27,1.2-2.55A85.76,85.76,0,0,1,27,37.28l1.44-1.6,1.76-1.79,1-1,1-1c.7-.64,1.4-1.31,2.12-1.95,1.47-1.25,2.93-2.52,4.35-3.57l1-.79c.33-.26.65-.51,1-.73l1.76-1.24A87.9,87.9,0,0,1,70.72,11.86a74.69,74.69,0,0,1,30.66-.51c-1.33.06-1.07.5-.6,1s1.16,1,.78,1.31a2.74,2.74,0,0,1-1.52.21c-.43,0-1,0-1.64-.12s-1.47-.08-2.41-.15l-.73-.07c-.26,0-.52,0-.79,0l-1.77-.09-1-.05c-.33,0-.68,0-1,0l-2.29,0a80.15,80.15,0,0,0-12.09.91l.16,1a61.53,61.53,0,0,1,13.28-.37c.5.05,1,.07,1.48.12l1.43.2,1.38.18c.22,0,.45.06.67.11l.66.13,2.52.51c.8.19,1.56.41,2.3.61l1.08.3c.35.1.69.24,1,.35l1.89.67c.6.2,1.15.46,1.68.69s1,.46,1.46.68l.66.31.59.33,1,.62a13.74,13.74,0,0,1,1.47,1c.73.6.9,1,.46,1.09a3.4,3.4,0,0,1-1.1,0,16.83,16.83,0,0,1-2-.34l-1.31-.3-1.56-.31-1.81-.39L101.73,21a73.27,73.27,0,0,0-11-1.08,68.67,68.67,0,0,0-15.48,1.52c-.67.12-1.32.29-2,.46l-2,.5-2,.6c-.66.2-1.33.38-2,.63l-2,.7-.5.18-.48.2-1,.4-1,.4c-.33.13-.66.26-1,.41l-1.94.9c-.33.15-.66.29-1,.46l-1,.49-1.92,1-1.9,1.09-.95.54-.93.59L50,32.13c-.61.4-1.21.84-1.82,1.26-1.23.83-2.39,1.78-3.58,2.68-.3.22-.58.47-.87.71l-.86.73-.86.73-.43.36-.42.39-1.66,1.54-.42.39-.4.4-.8.81a76.8,76.8,0,0,0-6,6.91L30.41,50.9c-.22.31-.46.61-.68.94l-.64,1c-.43.65-.87,1.29-1.29,1.94l-1.19,2-.6,1-.55,1-1.11,2.06c-.33.71-.66,1.41-1,2.12L22.85,64c-.17.35-.3.72-.46,1.08a75.57,75.57,0,0,0-5.13,18.15c-.11.79-.24,1.57-.35,2.36L16.67,88l-.13,1.18-.07,1.19-.14,2.38a92.92,92.92,0,0,0,1.29,19,94.25,94.25,0,0,0,2.12,9.19,95.3,95.3,0,0,0,4.59,12.81,87.55,87.55,0,0,0,6.42,11.92,73.38,73.38,0,0,0,18.06,19.48c.44.32.88.66,1.33,1l1.38.9,1.37.9,1.42.82,1.42.82,1.48.75,1.48.75c.49.24,1,.45,1.51.68A75.36,75.36,0,0,0,72.83,176,105.41,105.41,0,0,0,100,178.91c3.18-.06,6.39-.17,9.62-.44s6.44-.61,9.64-1.09a109.16,109.16,0,0,0,18.93-4.54,80.71,80.71,0,0,0,17.48-8.28A61.06,61.06,0,0,0,170,152a56.3,56.3,0,0,0,5.41-7.84,57,57,0,0,0,4-8.64,67.26,67.26,0,0,0,3.83-18.78,83.17,83.17,0,0,0-1.08-19.24,91.06,91.06,0,0,0-5.19-18.39c-.41-1.07-.92-2.16-1.42-3.31s-1.09-2.29-1.72-3.46c-.31-.59-.62-1.19-1-1.77s-.67-1.2-1-1.79L170.71,67l-1.2-1.79a100.28,100.28,0,0,0-11-13.73,132.34,132.34,0,0,0-11.8-10.75l-2.6-2.08-2.34-1.78c-.73-.55-1.38-1.08-2-1.54s-1.15-.86-1.61-1.22c-.68-.51-1.27-1-1.78-1.36s-1-.73-1.35-1a10.4,10.4,0,0,1-1.5-1.34c-.54-.63-.24-.76.36-.73a138.22,138.22,0,0,1,18.73,13.8,109.51,109.51,0,0,1,15.53,17.06l.86,1.16c.29.38.54.8.81,1.19l1.58,2.4c.55.79,1,1.61,1.52,2.43l.37.61.35.62.71,1.25a85.38,85.38,0,0,1,4.83,10.35,90.93,90.93,0,0,1,5.54,22.06c.24,2.3.45,4.62.5,6.93.06,1.16,0,2.32,0,3.47,0,.58,0,1.16,0,1.74s0,1.15-.08,1.73l-.11,1.72c0,.58-.11,1.15-.16,1.73-.09,1.15-.28,2.28-.42,3.42-.09.57-.2,1.14-.29,1.7l-.15.85c-.05.29-.11.57-.17.85l-.35,1.68-.42,1.67-.2.83-.24.83-.48,1.64-.55,1.63c-.09.27-.18.54-.28.81l-.3.8a58.83,58.83,0,0,1-2.76,6.24c-.54,1-1.06,2-1.66,3l-.44.73c-.14.25-.29.49-.45.73l-.93,1.42a57.19,57.19,0,0,1-4.14,5.4l-.56.65c-.18.21-.38.42-.57.63l-1.16,1.24c-.82.8-1.6,1.62-2.45,2.37-.43.38-.83.78-1.27,1.14l-1.3,1.11c-.43.37-.89.71-1.34,1.06l-.67.53c-.22.18-.46.34-.68.51l-1.39,1-1.42,1c-.46.33-.95.63-1.44.93s-1,.62-1.46.9c-2,1.18-4,2.24-6,3.25a101.23,101.23,0,0,1-26.41,8.16c1.12-.18,2.24-.41,3.35-.61s2.24-.45,3.34-.71c2.22-.5,4.42-1.09,6.6-1.73s4.34-1.38,6.48-2.17,4.23-1.69,6.29-2.67,4.08-2,6-3.18l.74-.42.72-.45,1.45-.91c.94-.64,1.89-1.26,2.8-1.94s1.82-1.37,2.71-2.07c.45-.36.87-.73,1.31-1.1l.65-.55.63-.57,1.26-1.16,1.21-1.2c.41-.4.79-.82,1.18-1.23s.78-.83,1.15-1.27l1.11-1.3c.37-.42.71-.89,1.06-1.33.72-.88,1.36-1.83,2-2.75.33-.48.63-1,1-1.44L176,147l.44-.74.87-1.48.81-1.51.41-.75.37-.78c.24-.52.5-1,.74-1.55.44-1.06.93-2.1,1.31-3.19a58.08,58.08,0,0,0,2.11-6.59l.42-1.69c.14-.57.24-1.14.37-1.71.25-1.13.42-2.28.62-3.43.08-.58.15-1.16.23-1.73l.12-.87c0-.29.05-.58.08-.87l.17-1.75.11-1.75.05-.88,0-.88,0-1.76v-2.65l0-.88c-.05-2.35-.27-4.7-.53-7a90.94,90.94,0,0,0-5.41-22,87.33,87.33,0,0,0-4.73-10.32c-.91-1.66-1.84-3.3-2.88-4.89l-1.56-2.39-.78-1.19-.84-1.15a108.8,108.8,0,0,0-15.22-17l-.53-.49-.54-.47-1.09-.93L149,39.81,146.7,38c-.75-.59-1.48-1.21-2.27-1.76l-2.31-1.71c-.39-.28-.77-.57-1.17-.84l-1.19-.81-2.38-1.63c-.8-.53-1.62-1-2.43-1.55,1.22.17,2.43.31,1.08-1.1l-1.33-.84c-.82-.53-2-1.2-3.29-2l-2-1.17-2.11-1.14-2-1.09c-.64-.34-1.25-.63-1.78-.91-1-.61-2-1.18-2.86-1.71s-1.7-1-2.43-1.43-1.38-.84-2-1.21-1.11-.68-1.55-1c-1.79-1.18-2.48-1.89-2.33-2.23s1.12-.3,2.66,0c.76.15,1.67.36,2.68.63s2.11.64,3.28,1c.59.22,1.21.42,1.83.67l1.92.75,2,.8C127.48,18.12,128.18,18.44,128.91,18.75Z"/></svg>