<?xml version="1.0" standalone="no"?>
<!DOCTYPE svg PUBLIC "-//W3C//DTD SVG 20010904//EN"
 "http://www.w3.org/TR/2001/REC-SVG-20010904/DTD/svg10.dtd">
<svg version="1.0" xmlns="http://www.w3.org/2000/svg"
 width="16.000000pt" height="16.000000pt" viewBox="0 0 16.000000 16.000000"
 preserveAspectRatio="xMidYMid meet">
<metadata>
Created by potrace 1.11, written by Peter Selinger 2001-2013
</metadata>
<g transform="translate(0.000000,16.000000) scale(0.001600,-0.001600)"
fill="#000000" stroke="none">
<path d="M4983 9867 c-9 -15 -15 -191 -8 -234 4 -24 11 -33 25 -33 26 0 30 22
31 150 2 105 -1 118 -21 123 -11 3 -23 0 -27 -6z"/>
<path d="M4599 9843 c-3 -37 2 -202 7 -225 2 -13 7 -48 10 -78 6 -61 15 -76
39 -67 13 6 15 22 11 109 -5 103 -12 185 -22 246 -4 23 -10 32 -24 32 -12 0
-21 -7 -21 -17z"/>
<path d="M5361 9842 c-6 -11 -8 -21 -6 -24 3 -2 0 -31 -5 -64 -13 -75 -21
-186 -21 -289 -1 -108 -2 -105 20 -105 22 0 29 24 31 110 0 30 3 69 6 85 7 38
16 161 18 240 1 49 -2 60 -16 63 -9 2 -21 -5 -27 -16z"/>
<path d="M4221 9803 c-18 -34 3 -139 29 -146 11 -3 21 -2 24 1 10 9 5 86 -7
121 -14 41 -32 50 -46 24z"/>
<path d="M5747 9805 c-27 -27 -36 -144 -12 -152 17 -5 34 11 37 37 2 14 6 30
9 35 12 21 9 73 -5 84 -11 9 -17 8 -29 -4z"/>
<path d="M3480 9630 c-15 -9 -2 -66 57 -240 40 -118 54 -140 77 -121 11 9 12
19 4 44 -5 18 -16 57 -24 87 -26 98 -76 229 -89 233 -6 3 -18 1 -25 -3z"/>
<path d="M6493 9632 c-8 -6 -51 -112 -60 -147 -1 -5 -16 -53 -32 -105 -29 -93
-28 -111 3 -116 10 -1 23 23 42 79 15 45 30 84 33 87 6 5 10 17 17 56 2 12 11
40 19 64 8 23 15 50 15 60 0 20 -21 32 -37 22z"/>
<path d="M3870 9596 c0 -19 7 -55 14 -78 8 -24 17 -56 20 -73 3 -16 17 -79 30
-140 14 -60 27 -121 30 -135 3 -14 12 -47 20 -75 24 -82 44 -158 51 -198 5
-33 9 -37 28 -31 12 3 24 8 25 9 8 7 -65 336 -88 395 -5 14 -11 41 -14 60 -3
19 -12 57 -21 83 -8 27 -14 52 -13 55 1 4 -5 30 -14 57 -9 28 -18 61 -20 75
-2 17 -10 26 -25 28 -20 3 -23 -1 -23 -32z"/>
<path d="M6084 9603 c-3 -16 -17 -64 -30 -108 -12 -44 -26 -98 -29 -121 -3
-22 -9 -55 -14 -71 -6 -21 -5 -35 2 -42 28 -28 44 -4 66 99 6 25 17 70 26 100
23 78 34 141 28 157 -9 24 -42 15 -49 -14z"/>
<path d="M3120 9495 c-13 -16 3 -64 69 -207 17 -37 33 -80 37 -95 4 -15 21
-57 39 -93 17 -36 45 -101 60 -145 35 -98 52 -125 76 -125 33 0 35 -5 -99 335
-30 77 -61 147 -68 156 -8 8 -14 19 -14 23 0 4 -11 31 -24 59 -13 29 -26 62
-30 74 -9 27 -31 36 -46 18z"/>
<path d="M6853 9502 c-16 -11 -53 -98 -53 -126 0 -19 5 -26 19 -26 36 0 90
141 58 153 -7 3 -18 2 -24 -1z"/>
<path d="M4275 9403 c11 -121 14 -140 37 -258 11 -60 22 -117 22 -125 3 -27
15 -38 36 -33 21 6 22 19 5 103 -3 14 -8 52 -11 85 -3 33 -12 87 -20 120 -7
33 -14 71 -14 85 0 14 -5 42 -11 63 -7 27 -15 37 -31 37 -19 0 -20 -3 -13 -77z"/>
<path d="M5686 9458 c-2 -13 -11 -57 -20 -98 -15 -73 -29 -161 -41 -265 -3
-27 -8 -57 -10 -66 -3 -8 1 -24 9 -35 11 -15 17 -16 27 -7 13 13 47 180 55
273 3 30 9 69 14 85 8 27 14 89 11 123 -2 22 -40 14 -45 -10z"/>
<path d="M4990 9420 c-11 -7 -15 -33 -17 -107 -3 -136 2 -163 31 -163 20 0 22
5 24 53 0 30 2 58 3 63 1 5 1 36 0 70 -1 67 -17 99 -41 84z"/>
<path d="M4635 9400 c-5 -8 -1 -132 10 -270 1 -14 3 -58 3 -97 l2 -73 30 0
c27 0 30 3 29 28 -1 15 0 32 2 37 1 6 0 35 -4 65 -4 30 -10 89 -12 130 -6 83
-13 146 -21 173 -6 19 -29 23 -39 7z"/>
<path d="M2770 9335 c-19 -23 196 -445 226 -445 30 0 25 33 -20 121 -25 50
-46 94 -46 99 0 4 -18 39 -40 76 -22 38 -40 77 -40 86 0 10 -5 18 -10 18 -6 0
-15 11 -22 24 -13 31 -33 39 -48 21z"/>
<path d="M7112 9183 c-16 -32 -43 -82 -61 -111 -17 -30 -33 -61 -34 -70 -2 -9
-15 -36 -30 -59 -15 -24 -35 -62 -44 -85 -9 -24 -38 -86 -65 -138 -54 -107
-59 -133 -26 -128 16 2 37 35 92 143 39 77 74 142 78 145 4 3 19 32 33 65 14
33 35 78 47 100 94 178 97 188 61 193 -18 3 -27 -7 -51 -55z"/>
<path d="M5317 9178 c-13 -10 -19 -30 -21 -73 -3 -68 0 -85 19 -85 22 0 34 25
40 81 6 67 -9 98 -38 77z"/>
<path d="M6695 9138 c-14 -29 -25 -58 -25 -64 0 -6 -6 -17 -14 -23 -8 -6 -19
-32 -25 -57 -7 -25 -18 -56 -26 -68 -8 -12 -16 -37 -17 -56 -2 -29 1 -36 17
-38 16 -2 25 8 42 48 12 28 21 52 21 53 -1 1 9 22 21 46 32 61 73 189 66 201
-14 23 -37 7 -60 -42z"/>
<path d="M2434 9146 c-9 -24 102 -217 132 -230 6 -2 17 0 25 5 12 7 9 19 -16
66 -44 86 -105 173 -121 173 -8 0 -17 -6 -20 -14z"/>
<path d="M7494 9103 c-63 -89 -97 -163 -83 -179 16 -19 43 -2 63 40 9 19 20
38 25 41 14 8 71 113 71 129 0 11 -20 26 -34 26 -1 0 -20 -26 -42 -57z"/>
<path d="M3648 9088 c-3 -7 1 -30 8 -50 7 -21 20 -68 30 -105 9 -38 20 -72 24
-78 4 -5 11 -25 15 -43 6 -30 10 -33 33 -27 15 4 29 9 31 11 3 2 -10 42 -27
88 -18 45 -32 92 -33 102 0 10 -10 39 -22 64 -22 44 -51 63 -59 38z"/>
<path d="M6296 9053 c-9 -26 -29 -86 -46 -133 -50 -135 -52 -150 -27 -160 24
-9 47 11 47 40 0 9 4 20 9 26 4 5 16 38 26 74 9 36 22 74 28 85 6 11 12 29 13
40 10 67 9 70 -13 73 -18 3 -24 -5 -37 -45z"/>
<path d="M5951 9050 c-5 -16 -8 -30 -5 -30 3 0 0 -9 -6 -21 -11 -20 -40 -121
-40 -138 0 -5 11 -11 25 -14 30 -5 42 12 55 81 5 26 13 65 18 87 10 49 6 65
-18 65 -11 0 -22 -11 -29 -30z"/>
<path d="M7841 8927 c-138 -164 -346 -461 -335 -478 11 -18 44 -8 61 19 10 15
20 29 23 32 3 3 27 35 54 73 26 37 55 75 65 85 10 9 23 27 30 39 6 12 34 51
61 87 28 36 50 69 50 74 0 5 9 17 20 27 11 10 20 26 20 35 0 28 -28 32 -49 7z"/>
<path d="M4778 8866 c-1 -2 -50 -6 -108 -10 -122 -8 -166 -13 -360 -42 -249
-38 -614 -146 -890 -264 -1026 -439 -1830 -1318 -2173 -2375 -56 -170 -113
-393 -131 -510 -3 -16 -7 -43 -10 -60 -14 -86 -26 -167 -32 -229 -3 -37 -8
-87 -10 -110 -9 -85 -11 -465 -3 -561 19 -248 56 -491 103 -678 112 -442 289
-846 531 -1212 68 -102 172 -247 220 -304 270 -327 560 -591 885 -806 449
-297 934 -494 1454 -590 126 -23 157 -27 276 -40 30 -3 78 -8 105 -11 107 -12
533 -11 660 1 210 21 239 26 525 81 14 2 93 23 175 45 472 128 941 360 1335
662 149 114 244 199 415 371 420 422 731 930 924 1504 40 117 95 317 106 381
3 19 7 37 9 40 2 3 7 24 10 46 4 22 13 76 21 120 8 44 17 103 20 130 3 28 8
64 10 80 26 195 26 726 1 863 -2 9 -7 44 -10 77 -6 51 -20 140 -41 260 -17 94
-83 340 -125 465 -274 821 -808 1522 -1530 2012 -407 276 -887 480 -1370 582
-113 24 -136 28 -235 42 -27 3 -58 8 -67 10 -9 1 -48 6 -85 9 -37 4 -84 9
-103 11 -39 6 -496 14 -502 10z m497 -140 c22 -3 68 -8 103 -11 35 -4 71 -8
80 -9 9 -2 40 -7 67 -10 28 -4 104 -18 170 -31 1254 -250 2300 -1121 2775
-2310 99 -246 180 -535 214 -760 4 -22 11 -67 16 -100 48 -305 48 -778 0
-1075 -5 -30 -12 -75 -15 -100 -17 -123 -85 -389 -146 -572 -122 -363 -340
-775 -563 -1063 -125 -161 -227 -277 -371 -419 -409 -405 -920 -716 -1480
-900 -101 -34 -274 -81 -335 -93 -14 -2 -45 -9 -70 -14 -47 -11 -198 -37 -265
-45 -22 -3 -51 -7 -65 -10 -116 -19 -541 -25 -737 -11 -302 22 -689 108 -993
220 -1167 429 -2057 1416 -2360 2617 -22 85 -42 169 -45 185 -42 242 -49 291
-62 465 -13 173 -7 600 11 695 2 11 7 47 11 80 4 32 8 67 10 76 2 9 6 34 9 55
42 271 156 646 276 909 211 462 468 829 829 1179 130 126 117 115 259 230 523
422 1191 712 1832 796 47 6 96 13 110 15 14 3 72 8 130 11 58 3 106 8 108 9 5
5 451 -4 497 -9z"/>
<path d="M5214 8347 c-11 -29 1 -52 32 -62 23 -7 30 -15 28 -30 -1 -11 -7 -60
-14 -110 -6 -49 -13 -103 -15 -120 -2 -16 -9 -66 -14 -110 -18 -133 -18 -135
-50 -129 -21 5 -29 1 -40 -20 -25 -45 -3 -57 134 -72 33 -3 98 -12 144 -19
126 -18 127 -18 137 95 6 63 5 69 -16 80 -29 16 -51 -4 -59 -57 -6 -36 -9 -38
-41 -37 -19 1 -53 4 -75 7 -22 3 -48 6 -59 6 -15 1 -17 7 -13 34 4 17 9 59 12
92 4 33 8 67 10 75 2 8 7 41 10 72 4 31 12 94 18 139 l12 83 34 2 c29 2 50 16
51 35 0 17 -30 42 -56 44 -16 2 -59 6 -96 10 -57 6 -69 5 -74 -8z"/>
<path d="M4470 8334 c-264 -95 -305 -448 -69 -599 173 -111 417 -29 490 164
43 116 11 268 -77 355 -85 84 -236 119 -344 80z m215 -88 c92 -42 146 -127
146 -228 1 -137 -102 -247 -238 -254 -260 -13 -369 330 -149 470 67 43 165 48
241 12z"/>
<path d="M5918 8223 c-21 -25 -18 -43 10 -60 15 -9 28 -18 30 -19 2 -1 -27
-80 -64 -175 -58 -150 -67 -183 -67 -239 0 -73 15 -110 64 -158 71 -70 191
-81 270 -26 52 36 61 51 139 260 l67 179 36 -3 c27 -3 38 1 46 17 18 33 3 48
-83 80 -100 38 -114 38 -122 6 -7 -27 10 -55 32 -55 8 0 14 -5 14 -12 0 -15
-127 -353 -142 -377 -44 -72 -173 -64 -223 12 -35 54 -31 103 20 222 7 17 30
75 50 130 20 54 38 103 41 107 3 4 16 3 29 -2 18 -7 29 -5 46 9 35 28 12 53
-78 87 -97 35 -99 35 -115 17z"/>
<path d="M3786 8168 c-9 -5 -16 -16 -16 -23 0 -11 -11 -15 -37 -15 -171 0
-270 -145 -196 -287 10 -20 35 -45 54 -55 35 -20 41 -20 240 -4 15 2 42 -4 62
-11 84 -34 73 -154 -19 -198 -74 -35 -143 -18 -180 45 -20 33 -53 40 -74 15
-10 -13 -7 -30 20 -100 18 -47 39 -90 45 -95 19 -16 65 -1 65 20 0 14 12 18
65 22 76 7 140 40 182 95 25 32 28 45 28 107 0 59 -4 77 -24 105 -46 63 -117
80 -278 66 -79 -7 -82 -7 -107 18 -67 67 -2 177 104 177 44 0 77 -19 105 -61
14 -22 32 -39 39 -39 13 0 46 26 46 36 0 2 -16 44 -36 93 -36 90 -54 108 -88
89z"/>
<path d="M6721 7793 c-46 -64 -50 -87 -22 -103 30 -16 37 -13 68 29 l28 38 48
-32 47 -32 -23 -34 c-111 -163 -260 -369 -268 -369 -5 0 -18 6 -29 12 -25 16
-54 1 -58 -29 -2 -15 13 -32 60 -65 91 -65 106 -72 124 -57 21 17 17 55 -8 71
-21 14 -19 18 121 216 78 111 144 202 147 202 3 0 25 -14 50 -30 l44 -31 -24
-38 c-34 -53 -17 -102 28 -85 17 7 89 108 92 130 3 17 -41 53 -212 172 -72 51
-140 92 -152 92 -13 0 -34 -19 -61 -57z"/>
<path d="M2704 7547 c-6 -7 -74 -72 -152 -145 -123 -116 -140 -136 -133 -155
10 -28 47 -34 72 -11 18 16 21 15 64 -32 26 -27 72 -76 103 -109 32 -33 88
-93 126 -133 l69 -72 -22 -24 c-19 -20 -21 -28 -12 -45 21 -38 52 -24 141 60
198 188 218 209 213 228 -2 10 -26 40 -53 66 -35 34 -54 46 -71 43 -37 -5 -37
-44 1 -83 l31 -32 -83 -76 c-45 -43 -85 -77 -88 -77 -6 0 -101 98 -129 133
-12 16 -9 22 30 57 30 27 52 39 69 38 63 -5 66 35 8 98 -32 34 -47 44 -67 42
-28 -3 -42 -41 -22 -61 7 -7 -3 -23 -36 -54 -26 -24 -50 -43 -53 -43 -6 0 -51
47 -113 117 l-29 33 77 72 c43 40 81 74 85 76 5 2 22 -11 39 -27 33 -32 39
-35 65 -25 32 12 18 57 -32 107 -47 47 -77 57 -98 34z"/>
<path d="M4770 7429 c-88 -8 -175 -18 -210 -25 -14 -2 -36 -6 -50 -9 -151 -28
-244 -53 -385 -101 -543 -187 -1015 -564 -1325 -1058 -51 -81 -180 -325 -180
-341 0 -3 -9 -24 -20 -48 -43 -92 -127 -376 -144 -487 -3 -19 -10 -62 -16 -95
-24 -145 -33 -479 -17 -620 28 -240 59 -381 123 -570 102 -302 277 -613 473
-840 73 -84 267 -271 351 -337 282 -224 630 -397 970 -483 107 -27 112 -28
264 -52 119 -18 483 -24 626 -11 427 41 886 220 1244 486 127 94 144 110 292
257 134 134 214 231 314 380 58 87 87 136 160 270 97 178 203 513 240 755 21
144 25 203 25 390 -1 263 -13 365 -80 650 -9 39 -70 223 -97 290 -39 99 -144
308 -198 395 -365 585 -951 1001 -1616 1149 -116 26 -135 29 -284 47 -111 13
-353 17 -460 8z m425 -83 c33 -4 71 -9 85 -11 112 -16 184 -29 235 -42 33 -8
67 -16 76 -18 88 -17 320 -106 461 -175 570 -283 1017 -783 1231 -1380 44
-121 87 -275 103 -370 4 -25 8 -47 9 -50 1 -3 5 -32 9 -65 5 -33 11 -71 13
-85 9 -50 11 -427 3 -495 -16 -130 -20 -157 -41 -259 -35 -173 -118 -431 -168
-523 -6 -10 -28 -55 -51 -101 -157 -321 -418 -632 -726 -864 -158 -120 -416
-261 -605 -332 -90 -33 -245 -81 -293 -90 -11 -2 -41 -9 -66 -15 -152 -34
-326 -52 -505 -52 -125 1 -158 3 -290 16 -91 10 -104 12 -190 29 -660 137
-1209 505 -1579 1059 -209 312 -356 713 -401 1092 -14 114 -13 427 1 545 15
123 61 354 75 382 5 9 9 24 9 33 0 15 51 160 92 260 11 28 44 98 73 156 321
640 901 1107 1600 1288 60 16 128 32 150 35 39 6 71 11 130 21 17 3 71 8 120
11 50 4 91 8 93 9 5 4 292 -3 347 -9z"/>
<path d="M4740 7260 c-135 -16 -175 -21 -190 -25 -8 -2 -31 -7 -50 -10 -230
-39 -540 -160 -775 -302 -317 -193 -595 -468 -789 -782 -179 -290 -304 -644
-341 -963 -3 -27 -7 -69 -11 -95 -7 -64 -7 -302 1 -393 6 -63 24 -183 52 -335
10 -60 81 -282 117 -370 76 -182 186 -375 307 -535 86 -114 108 -139 219 -250
395 -395 927 -643 1475 -687 151 -12 432 -6 520 11 11 2 43 7 70 10 80 11 289
65 394 100 110 38 230 90 340 148 72 37 314 193 343 220 7 7 40 35 73 62 95
78 239 227 333 345 197 247 352 554 432 854 28 106 33 128 45 195 3 15 7 36
10 47 2 11 7 47 10 80 3 33 8 75 11 94 7 53 7 306 -1 401 -5 72 -16 150 -42
305 -8 51 -72 263 -98 329 -14 34 -25 65 -25 69 0 16 -104 222 -160 316 -187
318 -474 610 -792 810 -217 136 -462 239 -708 296 -52 13 -224 44 -270 50 -81
10 -425 13 -500 5z m480 -83 c14 -3 47 -8 73 -11 361 -49 735 -205 1049 -438
99 -74 136 -106 254 -224 474 -476 714 -1132 660 -1804 -10 -123 -13 -147 -40
-286 -15 -78 -65 -246 -101 -339 -284 -739 -908 -1275 -1675 -1441 -36 -8 -81
-17 -100 -20 -19 -3 -42 -7 -50 -9 -69 -18 -403 -25 -545 -12 -466 42 -944
248 -1302 562 -6 5 -53 51 -104 100 -382 372 -626 895 -674 1444 -12 129 -6
392 10 481 1 8 6 35 10 60 3 25 8 57 11 71 11 72 68 276 105 373 209 559 618
1010 1154 1271 170 83 336 142 505 179 114 24 152 31 260 42 30 4 57 8 59 10
5 5 409 -4 441 -9z"/>
<path d="M3845 6230 c-37 -15 -285 -275 -285 -299 0 -83 88 -120 145 -61 16
17 34 30 39 30 14 0 1066 -1052 1066 -1065 0 -6 -237 -246 -526 -535 -505
-504 -553 -557 -622 -680 -16 -30 -46 -83 -65 -117 -25 -43 -32 -63 -22 -63 8
0 16 4 19 9 4 5 41 28 84 52 145 80 167 92 186 105 10 7 261 254 558 550 l540
537 542 -541 541 -540 151 -86 c83 -47 154 -86 157 -86 4 0 -2 15 -12 33 -10
17 -30 55 -46 82 -115 208 -87 176 -651 740 -294 294 -534 537 -534 542 0 4
240 248 533 541 l533 533 34 -36 c43 -44 85 -47 124 -9 51 52 42 72 -111 226
-88 88 -147 139 -163 142 -46 7 -100 -42 -100 -89 0 -8 17 -33 37 -56 l37 -40
-536 -536 -536 -536 -537 537 -537 537 37 40 c31 35 36 46 31 72 -11 53 -64
85 -111 67z m562 -736 c483 -483 534 -537 520 -551 -13 -14 -68 38 -552 522
-441 441 -534 539 -524 551 6 8 13 14 16 14 2 0 245 -241 540 -536z m490 -678
c-653 -652 -1189 -1186 -1192 -1186 -8 0 38 84 48 88 4 2 7 7 7 12 0 4 516
524 1147 1154 1004 1004 1148 1145 1161 1132 13 -12 -133 -162 -1171 -1200z
m727 -539 c412 -412 541 -546 569 -595 20 -35 37 -65 37 -68 0 -2 -263 259
-585 581 -322 322 -585 589 -585 593 0 11 11 22 22 22 5 0 249 -240 542 -533z"/>
<path d="M7382 7338 c-17 -17 -15 -38 5 -61 17 -18 15 -22 -73 -105 -212 -203
-265 -252 -273 -252 -5 0 -14 7 -21 15 -24 28 -70 11 -70 -26 0 -20 123 -149
142 -149 37 0 49 42 21 73 -20 21 -40 -1 241 264 108 102 108 103 125 81 14
-16 24 -19 44 -14 45 11 35 45 -36 120 -62 66 -83 76 -105 54z"/>
<path d="M2106 6896 c-71 -111 -77 -138 -33 -152 15 -5 26 0 42 20 l20 26 165
-100 c91 -55 166 -104 168 -108 1 -5 -24 -9 -55 -9 -166 -2 -490 -14 -504 -19
-19 -5 -68 -94 -62 -112 3 -7 13 -17 24 -23 16 -8 24 -5 44 17 l24 26 211
-128 c164 -99 209 -131 204 -143 -17 -40 -16 -59 4 -70 32 -17 44 -7 95 79 40
66 46 83 37 100 -14 26 -45 26 -67 0 -10 -11 -20 -20 -24 -20 -7 0 -318 187
-332 200 -4 4 -2 7 5 7 7 0 132 3 278 7 395 11 397 17 69 218 -123 75 -227
138 -232 140 -4 2 -2 17 5 35 9 25 9 35 -1 47 -24 29 -49 18 -85 -38z"/>
<path d="M7614 6819 c-104 -19 -198 -92 -243 -189 -21 -46 -25 -69 -25 -140 1
-107 23 -160 97 -234 161 -161 433 -114 534 92 24 49 28 69 28 142 0 71 -4 94
-26 140 -68 142 -214 218 -365 189z m121 -80 c74 -20 133 -68 167 -136 27 -56
30 -70 26 -128 -21 -250 -347 -327 -473 -110 -82 140 -5 329 152 371 60 16 78
16 128 3z"/>
<path d="M1850 6051 c-129 -29 -235 -136 -259 -263 -19 -104 19 -225 95 -302
63 -64 133 -91 234 -91 72 0 93 4 141 27 101 50 167 138 187 248 6 30 8 59 7
64 -2 6 -6 30 -9 53 -12 99 -108 214 -204 248 -56 19 -144 27 -192 16z m151
-86 c169 -58 228 -269 113 -403 -50 -59 -104 -85 -185 -88 -196 -8 -322 187
-233 363 60 118 182 170 305 128z"/>
<path d="M8200 6036 c-6 -8 -10 -28 -8 -43 3 -28 2 -28 -97 -54 -55 -15 -163
-43 -239 -63 -76 -20 -140 -35 -140 -34 -1 2 -7 16 -14 31 -10 23 -18 28 -40
25 -35 -4 -39 -30 -16 -117 24 -93 31 -103 62 -99 24 3 27 7 28 42 0 22 5 41
10 42 5 1 89 23 187 49 99 26 180 45 183 43 3 -4 -7 -16 -155 -178 -187 -205
-221 -244 -221 -255 0 -6 6 -19 13 -29 14 -19 33 -15 445 93 l113 30 8 -23
c14 -36 36 -49 60 -36 12 6 21 18 21 28 0 30 -38 162 -50 177 -30 36 -73 4
-63 -45 4 -25 1 -27 -84 -48 -48 -12 -137 -35 -196 -51 -111 -31 -113 -30 -72
15 6 6 46 51 90 99 44 49 89 99 100 111 45 49 92 102 127 141 l37 41 -14 53
c-18 66 -47 88 -75 55z"/>
<path d="M1792 4631 c-63 -22 -95 -42 -125 -83 -108 -143 -17 -354 161 -375
136 -16 261 95 262 232 0 156 -156 274 -298 226z m96 -18 c-10 -2 -26 -2 -35
0 -10 3 -2 5 17 5 19 0 27 -2 18 -5z m-158 -36 c0 -2 -10 -12 -22 -23 l-23
-19 19 23 c18 21 26 27 26 19z m275 -17 c10 -11 16 -20 13 -20 -3 0 -13 9 -23
20 -10 11 -16 20 -13 20 3 0 13 -9 23 -20z m-327 -50 c-7 -10 -14 -17 -17 -15
-4 4 18 35 25 35 2 0 -1 -9 -8 -20z m129 -28 c44 -44 48 -44 83 -12 57 53 86
29 30 -26 -16 -16 -30 -31 -30 -34 0 -3 14 -21 30 -40 27 -32 39 -60 24 -60
-14 0 -50 25 -67 47 -18 23 -20 23 -36 5 -19 -21 -62 -52 -73 -52 -18 0 -6 33
22 60 17 16 30 33 30 38 0 5 -13 21 -30 35 -32 29 -40 57 -15 57 8 0 22 -8 32
-18z m260 -64 c-3 -8 -6 -5 -6 6 -1 11 2 17 5 13 3 -3 4 -12 1 -19z m-420 -35
c-3 -10 -5 -4 -5 12 0 17 2 24 5 18 2 -7 2 -21 0 -30z m410 -45 c-3 -8 -6 -5
-6 6 -1 11 2 17 5 13 3 -3 4 -12 1 -19z m-394 -8 c3 -11 1 -18 -4 -14 -5 3 -9
12 -9 20 0 20 7 17 13 -6z m47 -70 c0 -5 -2 -10 -4 -10 -3 0 -8 5 -11 10 -3 6
-1 10 4 10 6 0 11 -4 11 -10z m310 6 c0 -2 -7 -7 -16 -10 -8 -3 -12 -2 -9 4 6
10 25 14 25 6z m-157 -73 c-7 -2 -21 -2 -30 0 -10 3 -4 5 12 5 17 0 24 -2 18
-5z"/>
<path d="M7975 4619 c-110 -54 -162 -176 -124 -290 53 -158 264 -209 384 -92
50 48 68 89 71 159 5 106 -60 204 -155 233 -57 17 -131 13 -176 -10z m72 -5
c-3 -3 -12 -4 -19 -1 -8 3 -5 6 6 6 11 1 17 -2 13 -5z m56 -1 c-7 -2 -21 -2
-30 0 -10 3 -4 5 12 5 17 0 24 -2 18 -5z m117 -49 c0 -2 -9 0 -20 6 -11 6 -20
13 -20 16 0 2 9 0 20 -6 11 -6 20 -13 20 -16z m-270 13 c0 -2 -10 -12 -22 -23
l-23 -19 19 23 c18 21 26 27 26 19z m318 -92 c-3 -3 -9 2 -12 12 -6 14 -5 15
5 6 7 -7 10 -15 7 -18z m-227 -16 l31 -31 32 31 c31 30 66 41 66 21 0 -5 -13
-25 -30 -43 -16 -19 -30 -38 -30 -41 0 -4 11 -17 24 -29 29 -27 43 -67 24 -67
-7 0 -27 14 -45 30 -18 17 -35 30 -39 30 -3 0 -22 -13 -41 -30 -59 -52 -76
-27 -22 35 l31 35 -31 32 c-56 57 -28 83 30 27z m248 -39 c0 -10 -3 -8 -9 5
-12 27 -12 43 0 25 5 -8 9 -22 9 -30z m-422 -37 c-3 -10 -5 -4 -5 12 0 17 2
24 5 18 2 -7 2 -21 0 -30z m420 -15 c-3 -7 -5 -2 -5 12 0 14 2 19 5 13 2 -7 2
-19 0 -25z m-377 -98 c6 -11 8 -20 6 -20 -3 0 -10 9 -16 20 -6 11 -8 20 -6 20
3 0 10 -9 16 -20z m350 16 c0 -2 -8 -10 -17 -17 -16 -13 -17 -12 -4 4 13 16
21 21 21 13z m-41 -49 c-2 -1 -13 -9 -24 -17 -19 -14 -19 -14 -6 3 7 9 18 17
24 17 6 0 8 -1 6 -3z m-132 -53 c-3 -3 -12 -4 -19 -1 -8 3 -5 6 6 6 11 1 17
-2 13 -5z"/>
<path d="M7186 2921 c-25 -25 -37 -45 -33 -55 7 -18 28 -21 43 -6 6 6 39 -20
92 -69 84 -80 96 -96 65 -87 -10 3 -34 8 -53 11 -19 3 -82 15 -139 26 -57 11
-114 18 -126 15 -24 -6 -51 -49 -41 -65 9 -14 36 -14 36 -1 0 24 27 4 125 -92
71 -69 102 -105 95 -112 -15 -15 -12 -36 6 -43 19 -7 94 63 94 89 0 19 -29 25
-46 8 -6 -6 -39 20 -92 72 -45 45 -81 82 -80 84 3 2 49 -6 118 -21 84 -18 186
-35 206 -35 47 0 24 36 -96 150 -78 75 -116 118 -110 124 6 6 10 18 10 28 0
30 -33 21 -74 -21z"/>
<path d="M2576 2916 c-84 -31 -138 -117 -130 -209 5 -59 23 -95 68 -135 37
-32 107 -58 133 -48 28 11 9 39 -36 52 -121 36 -158 167 -71 254 66 66 158 64
219 -5 31 -36 43 -96 21 -110 -16 -10 -12 -52 5 -52 9 0 36 18 60 39 38 34 43
43 34 59 -5 11 -14 17 -19 14 -5 -3 -17 9 -26 27 -21 42 -61 86 -96 104 -41
21 -118 26 -162 10z"/>
<path d="M2953 2560 c-46 -20 -97 -76 -112 -123 -13 -40 -9 -113 9 -148 38
-74 101 -112 186 -113 91 0 159 48 189 134 28 80 6 161 -59 218 -59 52 -142
64 -213 32z m165 -57 c49 -37 67 -71 66 -128 -1 -106 -90 -173 -194 -145 -76
21 -126 116 -101 193 13 38 53 80 91 96 35 15 108 7 138 -16z"/>
<path d="M6800 2549 c-161 -48 -192 -274 -49 -361 56 -34 91 -41 156 -27 132
27 196 185 123 304 -43 70 -148 108 -230 84z m134 -62 c88 -49 105 -165 37
-239 -42 -44 -127 -57 -184 -26 -106 56 -105 212 1 268 49 25 98 25 146 -3z"/>
<path d="M3393 2334 c-4 -10 1 -22 11 -29 15 -11 10 -24 -53 -141 -62 -116
-72 -129 -94 -126 -15 2 -27 -3 -31 -13 -4 -11 8 -24 41 -45 26 -17 55 -30 64
-30 24 0 29 21 11 43 -14 16 -11 25 33 110 56 109 65 119 66 87 0 -14 2 -32 3
-40 2 -8 7 -55 10 -105 19 -237 27 -240 130 -42 78 150 79 151 109 152 38 0
28 37 -18 62 -22 12 -47 22 -57 22 -23 1 -28 -20 -11 -41 13 -15 9 -27 -38
-117 -30 -55 -56 -98 -58 -95 -6 6 -7 12 -16 129 -4 55 -9 109 -10 120 -1 11
-3 35 -4 52 -1 25 -8 36 -31 48 -37 19 -49 19 -57 -1z"/>
<path d="M6412 2303 c-32 -16 -52 -33 -52 -44 0 -20 24 -31 38 -17 10 10 33
-26 126 -193 30 -55 34 -68 21 -73 -19 -7 -20 -35 0 -42 21 -9 116 46 113 65
-2 10 -14 16 -31 16 -25 -1 -34 11 -98 128 -66 119 -70 129 -53 141 10 8 15
20 11 30 -8 21 -14 21 -75 -11z"/>
<path d="M6100 2154 c-134 -58 -137 -60 -114 -113 20 -45 37 -57 54 -36 9 10
8 19 0 35 -13 25 -6 36 30 45 24 6 28 1 64 -87 68 -164 76 -188 61 -188 -7 0
-16 -7 -19 -16 -8 -21 -8 -21 9 -28 18 -7 125 38 125 53 0 14 -22 26 -41 23
-12 -2 -31 32 -73 132 -31 75 -56 138 -56 140 0 3 57 26 65 26 2 0 6 -11 9
-25 6 -25 39 -35 51 -15 9 14 -32 100 -47 99 -7 0 -60 -21 -118 -45z"/>
<path d="M3858 2070 c-53 -57 -46 -115 17 -159 75 -51 98 -82 85 -117 -10 -26
-18 -31 -55 -38 -58 -11 -113 44 -99 98 4 17 0 25 -12 30 -22 8 -27 2 -49 -56
-20 -54 -14 -83 15 -75 11 3 23 1 26 -5 4 -6 25 -18 47 -28 74 -33 151 -7 173
60 20 59 4 89 -88 163 -27 21 -48 45 -48 53 0 8 11 26 24 39 21 21 29 23 57
15 48 -14 63 -34 62 -80 -3 -74 36 -64 61 16 18 57 15 76 -12 73 -10 -2 -33 7
-52 19 -23 14 -51 22 -80 22 -37 0 -50 -6 -72 -30z"/>
<path d="M5804 2035 c-5 -11 -16 -14 -44 -10 -154 19 -269 -150 -198 -293 62
-125 237 -149 328 -46 34 39 36 47 16 63 -12 10 -21 5 -47 -23 -96 -106 -269
-47 -271 92 -1 128 147 209 223 122 45 -52 66 -36 48 37 -17 68 -42 94 -55 58z"/>
<path d="M4227 2003 c-3 -5 -8 -29 -12 -54 -5 -37 -4 -47 9 -52 16 -6 23 1 41
39 9 18 15 20 42 12 29 -8 31 -10 23 -36 -11 -34 -47 -218 -49 -249 -1 -7 -12
-13 -25 -13 -27 0 -41 -24 -23 -38 15 -12 98 -30 115 -24 20 6 14 39 -9 45
-12 3 -19 9 -16 14 3 4 8 24 11 43 3 19 15 77 26 129 11 52 20 98 20 103 0 10
41 10 57 0 7 -4 11 -21 10 -37 -2 -24 2 -31 19 -33 17 -2 22 5 31 42 11 50 8
60 -24 70 -23 7 -27 8 -147 31 -90 17 -93 18 -99 8z"/>
<path d="M5272 1939 c-26 -10 -28 -22 -7 -39 8 -7 15 -9 15 -4 0 15 20 -12 24
-32 2 -10 7 -66 11 -124 7 -104 7 -105 -19 -129 -33 -31 -81 -31 -113 1 -26
27 -29 36 -38 163 -4 50 -9 93 -11 96 -2 4 7 10 21 13 16 4 25 13 25 26 0 17
-7 20 -54 20 -30 0 -61 -3 -70 -6 -24 -9 -19 -33 9 -46 18 -8 25 -19 26 -42 0
-17 2 -42 4 -56 2 -14 4 -47 5 -75 6 -132 99 -200 204 -150 53 25 70 70 61
164 -3 42 -8 99 -11 127 -4 45 -2 52 16 57 12 3 20 14 20 26 0 19 -5 21 -48
20 -26 -1 -58 -6 -70 -10z"/>
<path d="M4644 1926 c-7 -19 3 -36 22 -36 13 0 14 -15 10 -92 -2 -51 -5 -119
-5 -150 -1 -51 -3 -58 -21 -58 -23 0 -38 -26 -24 -40 8 -8 73 -14 117 -11 24
1 21 20 -6 45 -19 17 -22 29 -19 64 4 38 6 42 32 42 46 0 59 -10 80 -58 20
-44 16 -61 -13 -62 -5 0 -7 -8 -5 -17 2 -14 17 -19 58 -24 30 -3 61 -4 68 -1
20 7 15 42 -7 42 -13 0 -26 18 -45 60 l-27 61 30 35 c55 62 41 153 -28 188
-14 8 -68 17 -119 20 -77 6 -93 4 -98 -8z m197 -57 c40 -21 44 -86 7 -116 -19
-17 -62 -23 -95 -14 -22 6 -28 13 -27 34 1 15 2 47 3 72 l1 44 46 -5 c25 -2
55 -9 65 -15z"/>
<path d="M2180 8833 c0 -10 27 -54 59 -98 33 -44 97 -134 142 -200 46 -66 87
-123 92 -126 5 -4 35 -44 66 -90 66 -96 84 -111 106 -88 15 15 13 20 -20 64
-20 26 -50 70 -67 99 -17 28 -44 64 -60 80 -15 15 -28 33 -28 38 0 11 -97 143
-135 184 -13 14 -42 54 -65 90 -33 49 -48 64 -66 64 -16 0 -24 -6 -24 -17z"/>
<path d="M2670 8747 c0 -13 4 -27 9 -32 5 -6 23 -37 41 -70 18 -33 44 -76 57
-95 12 -19 34 -51 48 -72 31 -47 43 -54 62 -36 13 13 9 25 -32 94 -56 95 -55
94 -79 130 -11 16 -30 46 -44 67 -28 42 -62 50 -62 14z"/>
<path d="M7251 8708 c-22 -35 -46 -72 -53 -83 -47 -75 -77 -124 -90 -150 -8
-16 -25 -47 -37 -67 l-22 -37 21 -11 c12 -6 23 -10 24 -8 28 38 126 191 166
261 19 31 38 57 42 57 4 0 8 8 8 18 0 9 7 25 15 35 17 23 9 47 -15 47 -11 0
-34 -25 -59 -62z"/>
<path d="M3075 8730 c-6 -9 58 -164 75 -183 4 -4 18 -3 32 3 l25 12 -38 75
c-21 41 -43 81 -50 89 -13 16 -35 18 -44 4z"/>
<path d="M1814 8695 c-8 -19 18 -53 166 -224 121 -139 149 -165 165 -151 8 7
15 15 15 19 0 4 -32 45 -70 91 -39 47 -75 90 -80 97 -6 7 -10 18 -10 24 0 7
-3 10 -6 6 -3 -3 -20 11 -37 31 -103 120 -131 141 -143 107z"/>
<path d="M8024 8563 c-31 -38 -75 -88 -98 -113 -23 -25 -69 -76 -101 -114 -32
-38 -65 -77 -74 -87 -50 -54 -61 -67 -61 -73 0 -6 -18 -28 -88 -109 -45 -51
-48 -63 -19 -81 13 -9 20 -6 32 11 9 12 21 28 28 35 7 7 42 49 79 93 36 44 96
112 132 150 36 39 66 73 66 78 0 4 13 22 29 40 59 65 83 93 113 135 17 23 35
42 39 42 17 0 16 41 -1 50 -16 8 -28 -1 -76 -57z"/>
<path d="M1534 8435 c-10 -25 158 -198 186 -193 37 7 20 41 -64 124 -85 83
-111 98 -122 69z"/>
<path d="M8385 8404 c-45 -46 -54 -76 -25 -82 22 -4 112 84 108 106 -6 33 -37
24 -83 -24z"/>
<path d="M7993 8012 c-112 -109 -203 -202 -203 -207 0 -5 7 -17 17 -27 15 -17
26 -8 220 189 193 196 222 233 183 240 -8 2 -106 -86 -217 -195z"/>
<path d="M2256 8175 c-3 -8 7 -29 22 -47 27 -33 33 -40 71 -88 19 -24 20 -24
40 -6 l20 18 -25 33 c-70 93 -115 124 -128 90z"/>
<path d="M8535 8037 c-228 -190 -290 -250 -282 -270 9 -23 29 -21 59 6 50 45
144 124 167 139 23 16 138 117 193 169 15 15 34 29 43 32 27 11 13 57 -18 57
-1 0 -74 -60 -162 -133z"/>
<path d="M1853 8114 c-4 -11 36 -58 138 -160 142 -142 144 -144 163 -125 19
20 17 21 -125 160 -79 78 -150 141 -157 141 -7 0 -15 -7 -19 -16z"/>
<path d="M1373 8093 c-37 -13 1 -56 167 -193 82 -67 106 -88 209 -182 28 -27
54 -48 56 -48 3 0 14 -8 24 -17 10 -10 33 -31 51 -46 l32 -29 21 20 20 20 -35
36 c-19 20 -40 36 -46 36 -6 0 -12 3 -14 8 -5 12 -184 172 -193 172 -4 0 -17
9 -29 21 -22 21 -145 123 -211 175 -22 17 -46 29 -52 27z"/>
<path d="M1041 7851 c-9 -16 2 -28 82 -88 134 -102 205 -146 223 -139 28 11
10 39 -56 87 -106 77 -225 159 -232 159 -4 0 -12 -8 -17 -19z"/>
<path d="M8825 7794 c-55 -40 -107 -77 -115 -81 -17 -7 -85 -59 -115 -86 -11
-11 -46 -37 -77 -58 -57 -39 -74 -71 -44 -82 8 -3 57 26 114 68 55 40 111 79
124 86 12 6 48 31 78 55 30 24 83 64 117 89 39 29 60 51 59 63 -5 34 -43 20
-141 -54z"/>
<path d="M826 7542 c-10 -17 24 -49 105 -98 45 -27 92 -59 105 -71 13 -12 24
-20 24 -18 0 6 144 -77 151 -86 3 -5 31 -22 64 -39 44 -22 62 -27 71 -19 8 7
10 17 6 25 -9 16 -324 220 -355 230 -12 4 -24 10 -27 13 -3 4 -28 21 -56 39
-51 32 -78 39 -88 24z"/>
<path d="M1500 7525 c-10 -12 -7 -20 21 -46 36 -33 134 -105 176 -127 22 -12
26 -12 38 5 11 15 11 20 -3 33 -27 24 -86 67 -95 68 -4 1 -32 20 -62 42 -30
22 -56 40 -58 40 -3 0 -10 -7 -17 -15z"/>
<path d="M8970 7447 c-83 -47 -93 -53 -232 -145 -85 -56 -96 -66 -88 -83 7
-12 16 -16 28 -11 31 13 174 96 239 140 35 23 67 42 71 42 20 0 92 64 92 81 0
28 -25 23 -110 -24z"/>
<path d="M8300 7414 c-109 -72 -106 -69 -90 -99 l13 -25 36 22 c20 12 47 32
60 45 13 13 28 23 32 23 15 0 65 54 64 70 0 29 -31 20 -115 -36z"/>
<path d="M639 7204 c-15 -18 30 -58 86 -78 39 -13 45 -13 57 1 10 13 8 18 -12
34 -14 11 -29 23 -35 27 -32 26 -81 34 -96 16z"/>
<path d="M9232 7169 c-106 -52 -133 -77 -108 -99 12 -9 36 0 118 40 111 54
135 75 117 97 -6 7 -14 13 -18 13 -3 0 -52 -23 -109 -51z"/>
<path d="M942 7039 c3 -22 77 -65 306 -180 101 -51 125 -60 133 -48 15 24 10
37 -18 52 -155 83 -389 197 -405 197 -14 0 -19 -6 -16 -21z"/>
<path d="M8821 6960 c-58 -27 -112 -55 -121 -62 -9 -7 -33 -22 -53 -32 -38
-20 -41 -24 -31 -50 7 -19 16 -16 201 76 122 60 143 75 141 92 -2 11 -10 22
-18 23 -8 1 -62 -20 -119 -47z"/>
<path d="M9459 6855 c-15 -8 -62 -26 -105 -41 -44 -14 -83 -29 -89 -34 -5 -4
-21 -11 -35 -15 -14 -4 -52 -20 -85 -35 -33 -16 -90 -42 -127 -58 -65 -29 -83
-51 -57 -68 6 -3 68 16 138 44 131 52 163 64 171 66 3 1 15 7 28 15 13 7 53
23 88 37 81 30 144 62 144 72 0 12 -22 32 -34 32 -6 -1 -23 -7 -37 -15z"/>
<path d="M590 6820 c-21 -13 -4 -39 37 -56 21 -10 54 -24 73 -32 19 -8 46 -20
60 -27 36 -17 74 -13 78 7 2 13 -16 27 -71 53 -41 20 -82 37 -93 39 -10 2 -31
9 -45 14 -14 6 -32 7 -39 2z"/>
<path d="M1002 6629 c4 -26 6 -27 118 -70 107 -42 117 -43 125 -18 7 22 2 32
-18 35 -7 1 -48 16 -92 34 -44 18 -93 34 -108 37 -25 4 -28 2 -25 -18z"/>
<path d="M346 6493 c-7 -18 6 -36 28 -39 14 -2 194 -60 231 -74 43 -17 83 -30
143 -46 34 -9 62 -20 62 -23 0 -4 10 -8 23 -9 12 -1 39 -5 60 -8 33 -5 37 -4
37 14 0 24 -9 31 -47 38 -15 3 -59 18 -98 33 -110 44 -166 63 -214 72 -25 5
-78 20 -119 34 -88 30 -98 30 -106 8z"/>
<path d="M9470 6459 c-162 -48 -210 -63 -280 -89 -41 -16 -84 -30 -95 -32 -25
-4 -27 -41 -2 -46 10 -2 54 8 98 22 44 14 94 28 111 31 16 3 42 12 57 19 21
11 57 23 91 31 3 0 26 9 53 19 32 13 47 25 47 37 0 27 -10 28 -80 8z"/>
<path d="M263 6142 c-33 -5 -30 -40 5 -54 48 -19 111 -26 122 -13 14 17 2 45
-19 45 -9 1 -32 6 -51 13 -19 7 -45 11 -57 9z"/>
<path d="M9665 6128 c-72 -24 -88 -27 -195 -44 -19 -3 -55 -12 -80 -19 -25 -8
-76 -20 -115 -28 -38 -9 -90 -21 -115 -27 -25 -7 -49 -13 -55 -14 -5 -2 -23
-6 -40 -10 -16 -5 -48 -14 -70 -22 -22 -7 -56 -15 -75 -17 -19 -2 -34 -6 -32
-10 1 -4 2 -16 2 -26 0 -17 5 -19 40 -15 22 3 66 13 97 23 50 16 126 32 150
33 5 0 15 4 24 9 9 5 34 11 54 13 52 7 137 26 157 37 20 10 84 25 148 34 25 4
66 13 91 21 47 16 74 22 97 23 8 1 12 10 10 24 -3 25 -43 32 -93 15z"/>
<path d="M570 6043 c0 -25 30 -39 112 -53 35 -6 81 -17 103 -25 53 -18 128
-39 137 -37 3 1 27 -5 51 -12 45 -13 46 -13 52 12 8 33 -5 44 -62 53 -110 18
-130 22 -163 36 -19 8 -64 19 -100 25 -36 5 -80 12 -97 15 -28 4 -33 2 -33
-14z"/>
<path d="M175 5754 c-17 -17 -8 -38 18 -39 22 -1 111 -16 217 -37 58 -11 114
-20 125 -20 11 1 36 -3 56 -8 65 -18 171 -22 180 -8 17 28 -9 40 -119 52 -24
3 -47 8 -51 11 -5 2 -23 7 -42 9 -19 3 -63 10 -99 15 -36 6 -103 15 -150 21
-47 6 -92 13 -101 16 -9 2 -24 -3 -34 -12z"/>
<path d="M9799 5765 c-3 -2 -32 -7 -65 -10 -32 -4 -72 -8 -89 -10 -39 -4 -85
-22 -85 -34 0 -27 64 -34 153 -17 6 2 30 6 52 11 51 10 75 22 72 38 -3 19 -27
33 -38 22z"/>
<path d="M9250 5680 c-46 -11 -84 -17 -202 -31 -91 -11 -97 -13 -93 -33 2 -12
4 -25 4 -29 1 -8 73 -3 132 8 13 3 60 12 104 21 44 8 98 17 120 20 59 6 75 13
75 35 0 16 -7 19 -52 18 -29 -1 -69 -5 -88 -9z"/>
<path d="M9699 5379 c-13 -4 -38 -7 -55 -8 -33 -1 -48 -19 -35 -40 6 -9 38
-10 121 -6 120 6 153 16 148 43 -3 14 -16 17 -79 17 -41 0 -86 -2 -100 -6z"/>
<path d="M241 5371 c-18 -12 -7 -41 16 -42 10 -1 32 -3 48 -5 17 -2 67 -6 113
-10 70 -4 83 -3 88 11 9 23 -5 34 -51 40 -78 11 -200 14 -214 6z"/>
<path d="M9227 5344 c-2 -1 -113 -12 -192 -18 -24 -2 -31 -8 -33 -28 l-3 -26
93 4 c125 5 244 15 293 23 31 5 40 11 40 26 0 19 -7 20 -98 20 -54 0 -99 -1
-100 -1z"/>
<path d="M687 5333 c-4 -6 -1 -17 6 -26 9 -12 35 -18 92 -21 44 -3 89 -7 100
-8 15 -2 21 4 23 25 2 17 -1 27 -10 27 -7 0 -56 3 -109 6 -59 4 -98 3 -102 -3z"/>
<path d="M344 5011 c-2 -2 -54 -5 -115 -6 -81 -2 -114 -6 -120 -16 -5 -8 -4
-18 2 -24 6 -6 143 -10 359 -11 358 -1 382 1 360 36 -7 12 -37 16 -132 17 -68
2 -174 4 -236 5 -63 2 -115 1 -118 -1z"/>
<path d="M9192 5002 c-17 -3 -22 -9 -20 -25 l3 -22 298 -1 c279 0 299 1 308
18 8 15 5 20 -13 27 -22 8 -527 11 -576 3z"/>
<path d="M718 4670 c-75 -8 -140 -18 -144 -22 -3 -4 -4 -15 0 -24 6 -15 17
-16 94 -9 48 4 110 9 137 10 28 1 60 3 73 4 18 1 22 7 22 31 0 25 -4 29 -22
28 -13 -1 -85 -9 -160 -18z"/>
<path d="M9010 4666 c0 -14 4 -28 10 -31 10 -6 221 -19 335 -20 63 0 70 2 70
20 0 17 -9 21 -60 27 -33 3 -85 9 -115 12 -30 4 -97 9 -147 12 l-93 5 0 -25z"/>
<path d="M206 4633 c-3 -4 -33 -8 -73 -12 -7 0 -13 -10 -13 -20 0 -10 6 -21
13 -23 12 -4 136 -1 190 5 15 2 36 4 46 5 23 2 36 32 19 44 -12 8 -174 8 -182
1z"/>
<path d="M9607 4627 c-3 -9 0 -20 6 -25 15 -13 92 -23 187 -25 71 -2 75 -1 78
21 2 16 -2 22 -15 23 -10 0 -27 3 -38 5 -11 3 -63 7 -116 11 -81 5 -97 3 -102
-10z"/>
<path d="M8980 4345 c0 -14 6 -25 13 -26 6 0 19 -2 27 -4 43 -9 87 -16 132
-20 27 -2 84 -12 126 -20 76 -16 96 -19 202 -30 30 -3 73 -11 95 -16 22 -6 47
-11 55 -11 8 0 51 -7 95 -14 99 -17 102 -17 108 -1 12 32 -7 40 -168 67 -27 4
-63 11 -80 14 -61 12 -101 19 -125 22 -14 1 -38 5 -55 8 -43 9 -162 26 -220
32 -27 2 -80 9 -117 14 -89 13 -88 14 -88 -15z"/>
<path d="M801 4339 c-19 -4 -62 -10 -95 -14 -34 -3 -70 -8 -81 -10 -11 -2 -42
-7 -69 -10 -27 -3 -53 -8 -57 -11 -4 -2 -33 -7 -64 -10 -104 -12 -150 -28
-153 -54 -4 -25 -9 -25 133 -5 17 3 50 7 75 10 25 3 63 8 85 11 22 3 69 12
105 20 36 8 84 17 106 20 95 11 116 22 95 48 -13 16 -25 16 -80 5z"/>
<path d="M8951 4047 c-6 -6 -11 -16 -11 -23 0 -17 74 -44 121 -44 36 0 40 2
37 23 -2 15 -11 23 -28 25 -14 2 -31 9 -38 14 -7 6 -15 8 -18 5 -3 -3 -16 -2
-29 3 -14 5 -26 5 -34 -3z"/>
<path d="M698 3975 c-3 -3 -14 -7 -24 -9 -11 -3 -66 -14 -124 -25 -58 -12
-134 -30 -170 -40 -36 -11 -81 -23 -100 -28 -25 -6 -36 -15 -38 -31 -4 -27 18
-29 96 -8 28 8 52 12 52 10 0 -2 12 1 26 6 15 6 41 12 58 15 45 6 67 12 99 24
16 6 38 11 50 11 33 0 107 31 107 45 0 15 -24 37 -32 30z"/>
<path d="M9280 3970 c-31 -19 5 -44 106 -72 54 -16 115 -30 134 -33 19 -2 50
-8 68 -14 40 -12 62 -5 62 20 0 13 -12 21 -42 29 -24 6 -58 15 -75 20 -18 5
-33 6 -33 3 0 -3 -6 -1 -12 5 -7 5 -33 13 -58 17 -25 4 -52 11 -60 15 -28 14
-76 19 -90 10z"/>
<path d="M8840 3727 c0 -20 12 -26 108 -56 59 -18 141 -46 183 -62 41 -16 81
-29 88 -29 7 0 27 -6 44 -14 18 -8 43 -17 57 -19 47 -10 95 -25 145 -45 90
-37 174 -57 187 -44 21 21 -1 39 -74 61 -40 13 -93 31 -118 42 -25 10 -70 26
-100 35 -30 9 -64 20 -75 25 -43 19 -224 77 -227 73 -3 -2 -46 10 -97 26 -111
36 -121 37 -121 7z"/>
<path d="M1025 3721 c-3 -3 -12 -6 -21 -7 -32 -5 -124 -48 -124 -59 0 -27 22
-33 69 -19 25 8 55 16 66 18 50 7 76 35 57 62 -7 11 -38 15 -47 5z"/>
<path d="M564 3571 c-51 -15 -100 -32 -110 -36 -11 -5 -39 -15 -63 -24 -48
-17 -56 -27 -41 -51 8 -12 19 -11 82 9 40 13 82 25 93 27 11 1 44 12 73 23 28
10 52 18 52 15 0 -2 15 5 33 15 17 10 32 24 32 32 0 23 -53 20 -151 -10z"/>
<path d="M8740 3440 c-16 -29 -13 -35 28 -52 82 -34 102 -40 118 -34 31 12 8
38 -63 71 -69 32 -73 33 -83 15z"/>
<path d="M1146 3415 c-16 -8 -33 -15 -40 -15 -6 0 -29 -9 -50 -21 -21 -11 -68
-30 -104 -41 -36 -11 -104 -39 -151 -63 -47 -24 -115 -54 -151 -68 -112 -42
-170 -75 -170 -97 0 -26 31 -26 79 0 29 16 73 36 101 45 41 14 83 32 165 70
33 15 93 38 134 51 111 37 231 96 231 114 0 32 -14 40 -44 25z"/>
<path d="M9062 3288 c2 -16 20 -28 73 -50 39 -16 88 -37 110 -47 22 -10 63
-26 90 -36 28 -10 59 -24 70 -30 11 -7 39 -18 63 -25 36 -12 45 -12 52 0 12
19 2 38 -23 46 -12 4 -56 23 -97 43 -41 20 -77 36 -80 37 -3 0 -18 6 -35 13
-76 32 -191 71 -208 71 -13 0 -18 -6 -15 -22z"/>
<path d="M8610 3150 c-17 -32 -8 -43 66 -79 38 -19 132 -64 210 -102 153 -75
177 -82 172 -47 -2 17 -39 40 -177 110 -95 49 -193 100 -217 114 l-43 25 -11
-21z"/>
<path d="M1100 3026 c-25 -13 -67 -34 -95 -47 -134 -63 -265 -142 -265 -160 0
-12 7 -19 19 -19 17 0 155 63 234 106 16 9 65 35 110 58 59 31 82 48 82 62 0
27 -32 27 -85 0z"/>
<path d="M9222 2838 c-6 -6 -8 -17 -5 -24 5 -13 68 -57 88 -60 5 -1 18 -5 27
-9 11 -4 20 0 28 14 10 19 6 24 -27 44 -21 12 -40 22 -43 22 -3 0 -12 5 -20
10 -21 14 -37 14 -48 3z"/>
<path d="M1409 2806 c-138 -72 -400 -230 -453 -273 -15 -13 -43 -30 -61 -37
-44 -19 -76 -52 -69 -71 8 -21 28 -19 72 9 158 99 202 126 232 138 19 8 41 22
49 31 7 10 17 17 21 17 4 0 32 16 61 36 30 20 66 41 82 46 15 6 27 13 27 17 0
4 18 17 40 30 56 31 55 87 -1 57z"/>
<path d="M8656 2753 c-16 -16 -2 -43 34 -67 22 -14 42 -26 44 -26 7 0 140 -83
154 -97 6 -6 21 -15 32 -18 11 -3 20 -11 20 -16 0 -5 6 -9 14 -9 8 0 37 -16
65 -35 114 -76 161 -91 161 -51 0 13 -210 157 -300 205 -25 13 -57 32 -72 42
-14 11 -30 19 -35 19 -4 0 -24 10 -43 23 -42 28 -66 38 -74 30z"/>
<path d="M1598 2548 c-13 -13 -50 -41 -82 -63 -133 -92 -152 -106 -176 -126
-50 -41 -156 -120 -196 -147 -70 -47 -104 -80 -104 -101 0 -31 27 -26 75 14
23 19 54 40 69 46 14 7 26 16 26 20 0 5 41 37 91 71 51 35 119 82 153 106 33
24 79 55 101 70 21 15 57 43 79 64 34 31 38 38 27 52 -18 22 -34 20 -63 -6z"/>
<path d="M8467 2473 c-19 -18 2 -44 90 -113 53 -41 110 -83 127 -94 17 -10 33
-22 34 -27 2 -5 9 -9 15 -9 7 0 32 -16 56 -35 46 -37 75 -44 84 -21 6 16 -10
32 -103 101 -36 27 -67 52 -70 55 -3 3 -31 24 -63 45 -32 22 -79 55 -105 73
-49 34 -55 36 -65 25z"/>
<path d="M1778 2264 c-68 -61 -82 -79 -73 -94 12 -19 33 -9 102 48 69 58 70
59 52 81 l-18 22 -63 -57z"/>
<path d="M8257 2203 c-16 -16 -2 -35 71 -98 42 -36 95 -83 117 -104 22 -20 60
-53 85 -73 25 -20 60 -49 77 -65 64 -56 94 -75 108 -69 8 3 15 12 15 19 0 8
-60 67 -132 132 -73 65 -138 124 -144 132 -6 7 -15 13 -21 13 -5 0 -20 10 -33
23 -51 47 -115 97 -126 97 -6 0 -14 -3 -17 -7z"/>
<path d="M1505 2029 c-16 -16 -34 -29 -39 -29 -5 0 -23 -13 -40 -29 -167 -156
-171 -161 -146 -176 18 -11 48 10 226 164 43 37 74 71 74 82 0 29 -40 23 -75
-12z"/>
<path d="M1774 1794 c-236 -238 -265 -274 -223 -282 10 -2 112 92 268 248 207
207 250 254 240 266 -6 8 -18 14 -26 14 -8 0 -124 -111 -259 -246z"/>
<path d="M7947 2033 c-4 -3 -7 -11 -7 -18 0 -12 486 -505 498 -505 15 0 34 18
31 29 -5 15 -227 248 -304 320 -33 31 -88 84 -122 118 -58 59 -80 72 -96 56z"/>
<path d="M7642 1877 l-20 -22 66 -71 c37 -40 93 -100 124 -134 48 -52 60 -61
72 -51 22 19 7 45 -74 130 -9 9 -27 32 -42 51 -14 20 -37 47 -52 60 -14 14
-26 30 -26 36 0 22 -28 22 -48 1z"/>
<path d="M2232 1779 c-51 -66 -61 -99 -30 -99 14 0 57 43 104 105 27 36 27 38
9 51 -10 8 -21 14 -24 13 -3 0 -30 -32 -59 -70z"/>
<path d="M7396 1675 c-18 -14 -16 -18 38 -89 31 -42 56 -79 56 -84 0 -9 23
-39 92 -121 26 -31 48 -60 48 -66 0 -5 14 -26 30 -45 16 -19 30 -38 30 -43 0
-15 50 -31 62 -19 8 8 -6 35 -53 104 -101 147 -196 280 -231 322 -18 21 -34
42 -36 47 -5 12 -14 11 -36 -6z"/>
<path d="M2453 1522 c-107 -136 -159 -209 -172 -237 -5 -11 -23 -38 -40 -60
-17 -22 -38 -49 -46 -60 -17 -22 -20 -51 -5 -60 14 -9 113 98 130 140 3 7 17
27 32 46 48 59 212 281 225 303 13 21 2 46 -21 46 -6 0 -52 -53 -103 -118z"/>
<path d="M2002 1515 c-57 -60 -112 -139 -112 -159 0 -9 8 -16 18 -16 17 0 38
21 142 142 32 38 37 71 10 75 -8 2 -34 -17 -58 -42z"/>
<path d="M7994 1456 c-11 -29 152 -212 180 -203 26 9 12 37 -60 125 -75 90
-107 111 -120 78z"/>
<path d="M2788 1428 c-33 -44 -118 -204 -118 -222 0 -8 7 -16 15 -20 16 -6 48
37 101 131 16 29 32 53 36 53 4 0 15 14 24 32 15 30 15 32 -2 45 -25 18 -29
17 -56 -19z"/>
<path d="M6862 1329 c-12 -5 -22 -11 -22 -13 0 -11 25 -62 34 -68 5 -3 11 -14
12 -22 4 -30 55 -106 70 -106 27 0 26 28 -6 91 -61 123 -64 127 -88 118z"/>
<path d="M7227 1324 c-8 -9 7 -44 42 -96 17 -25 31 -49 31 -52 0 -4 12 -25 27
-49 16 -23 32 -52 38 -63 5 -12 46 -76 89 -143 75 -115 100 -139 112 -107 6
15 -8 42 -86 175 -28 46 -50 86 -50 88 0 1 -25 40 -55 84 -30 45 -52 86 -49
90 3 5 1 9 -5 9 -5 0 -19 16 -31 35 -20 32 -47 45 -63 29z"/>
<path d="M3058 1236 c-42 -82 -209 -420 -231 -466 -18 -39 -15 -50 14 -50 14
0 31 24 68 98 70 140 109 216 118 227 5 6 28 51 51 100 24 50 48 99 54 109 8
15 6 22 -8 33 -10 7 -21 13 -26 13 -4 0 -22 -29 -40 -64z"/>
<path d="M3381 1142 c-18 -34 -51 -127 -51 -144 0 -11 8 -18 20 -18 16 0 29
18 57 76 36 74 36 77 18 90 -25 18 -32 18 -44 -4z"/>
<path d="M6580 1114 c0 -9 6 -30 14 -47 8 -18 29 -70 47 -117 17 -47 36 -90
40 -96 5 -6 10 -19 12 -30 2 -10 9 -29 15 -41 7 -13 10 -23 8 -23 -3 0 4 -17
15 -37 19 -34 58 -126 63 -148 5 -19 51 -110 60 -117 19 -13 38 5 33 31 -4 23
-72 194 -97 246 -5 11 -18 43 -29 70 -28 73 -125 298 -134 313 -12 18 -47 15
-47 -4z"/>
<path d="M2557 1038 c-9 -5 -17 -13 -17 -19 0 -5 -8 -19 -18 -29 -29 -31 -93
-152 -90 -169 7 -36 37 -21 74 36 20 32 41 60 45 61 5 2 9 11 9 20 0 8 6 23
14 31 8 9 17 28 21 42 7 30 -11 43 -38 27z"/>
<path d="M3680 1007 c-35 -117 -44 -145 -57 -185 -18 -50 -12 -73 16 -65 22 5
24 12 73 165 l34 107 -27 10 c-25 9 -27 7 -39 -32z"/>
<path d="M7041 956 c-10 -12 2 -43 58 -158 39 -80 81 -155 92 -167 19 -20 23
-21 36 -8 14 13 6 32 -61 168 -95 189 -100 196 -125 165z"/>
<path d="M5964 924 c-8 -3 -9 -19 -2 -52 5 -26 10 -58 12 -72 2 -14 9 -38 16
-55 6 -16 11 -32 11 -35 0 -3 2 -15 6 -28 7 -30 49 -27 46 3 -12 117 -13 122
-33 170 -5 11 -11 32 -14 48 -6 26 -17 31 -42 21z"/>
<path d="M5642 902 c-20 -3 -22 -8 -18 -62 1 -33 8 -65 13 -72 6 -7 10 -31 8
-53 -1 -22 5 -62 12 -90 8 -27 16 -66 18 -85 5 -41 20 -134 40 -240 8 -41 17
-92 20 -112 6 -42 15 -51 40 -42 14 6 16 15 10 63 -5 31 -9 63 -9 71 -1 9 -5
21 -10 28 -4 7 -12 52 -17 100 -13 126 -20 170 -36 242 -1 8 -6 42 -9 75 -3
33 -10 67 -15 77 -5 9 -9 35 -9 57 0 44 -4 49 -38 43z"/>
<path d="M6310 888 c0 -43 124 -424 145 -447 8 -7 21 -11 29 -8 20 8 17 23
-24 142 -17 50 -30 90 -29 90 3 0 -15 62 -21 70 -5 6 -13 30 -20 55 -20 76
-42 120 -62 120 -12 0 -18 -7 -18 -22z"/>
<path d="M4319 883 c0 -5 -2 -21 -4 -38 -3 -16 -7 -55 -10 -85 -5 -59 -13
-107 -20 -127 -7 -21 6 -43 25 -43 11 0 20 10 25 28 13 51 43 257 38 265 -2 4
-15 7 -29 7 -13 0 -24 -3 -25 -7z"/>
<path d="M4978 828 c-4 -11 -3 -149 1 -170 0 -5 10 -8 21 -8 22 0 28 28 28
128 0 58 -1 62 -23 62 -12 0 -25 -6 -27 -12z"/>
<path d="M4662 821 c-6 -4 -14 -34 -17 -66 -3 -33 -8 -72 -11 -87 -6 -32 -12
-103 -19 -253 -3 -60 -7 -125 -9 -144 -5 -41 2 -61 19 -61 24 0 30 24 40 155
3 44 8 103 11 130 4 28 8 77 9 110 2 33 6 94 10 136 5 61 4 77 -8 82 -7 3 -19
2 -25 -2z"/>
<path d="M5311 817 c-5 -7 -8 -25 -6 -39 3 -14 7 -79 9 -144 3 -66 7 -137 10
-159 3 -22 8 -69 11 -105 4 -36 9 -87 12 -115 6 -54 11 -110 12 -137 1 -11 9
-18 21 -18 25 0 34 34 26 92 -4 24 -9 86 -11 138 -3 52 -9 140 -15 195 -6 55
-13 132 -16 170 -3 39 -6 81 -7 93 -3 30 -31 47 -46 29z"/>
<path d="M3221 750 c-17 -39 -31 -75 -31 -80 0 -6 -4 -10 -10 -10 -5 0 -10 -8
-10 -17 0 -10 -10 -38 -22 -63 -24 -51 -25 -55 -34 -91 -6 -27 13 -44 32 -31
8 7 69 121 69 132 1 3 6 14 12 25 23 43 65 176 59 190 -12 32 -35 12 -65 -55z"/>
<path d="M3972 788 c-17 -53 -53 -179 -57 -197 -2 -9 -11 -45 -20 -81 -9 -36
-17 -74 -19 -85 -2 -11 -6 -33 -10 -50 -9 -42 -15 -74 -22 -117 -6 -34 -4 -38
14 -38 24 0 31 9 38 48 7 40 33 139 55 211 10 35 21 79 23 97 3 18 12 58 20
88 23 79 25 149 4 154 -11 2 -19 -7 -26 -30z"/>
<path d="M3530 543 c-21 -46 -45 -129 -55 -185 -6 -29 5 -41 28 -32 14 5 87
204 87 237 0 12 -19 27 -35 27 -2 0 -14 -21 -25 -47z"/>
<path d="M6066 473 c-5 -17 8 -90 32 -183 16 -58 23 -70 44 -70 18 0 19 5 14
59 -3 33 -10 70 -15 83 -5 12 -10 28 -11 33 -3 12 -5 20 -18 60 -10 34 -38 45
-46 18z"/>
<path d="M4990 470 c-22 -14 -22 -366 0 -380 9 -5 19 -5 26 1 23 19 20 357 -3
380 -5 5 -15 4 -23 -1z"/>
<path d="M4261 411 c-7 -5 -15 -20 -16 -34 -2 -14 -5 -30 -8 -34 -3 -5 -8 -36
-12 -68 -3 -33 -8 -69 -10 -81 -6 -29 20 -63 36 -47 6 6 13 23 14 37 2 14 8
40 14 58 14 44 19 170 6 174 -5 2 -16 0 -24 -5z"/>
</g>
</svg>
